<svg xmlns="http://www.w3.org/2000/svg" viewBox="0 0 1254.24 1899.84"><defs><style>.cls-1{fill:#f2ca25;}.cls-2{fill:#8dbf3d;}</style></defs><g id="Camada_2" data-name="Camada 2"><g id="objects"><polygon class="cls-1" points="844.23 1532.92 903.84 1653.7 1037.13 1673.07 940.68 1767.09 963.45 1899.84 844.23 1837.16 725 1899.84 747.77 1767.09 651.32 1673.07 784.62 1653.7 844.23 1532.92"/><polygon class="cls-1" points="410.01 1532.92 469.62 1653.7 602.91 1673.07 506.46 1767.09 529.23 1899.84 410.01 1837.16 290.79 1899.84 313.56 1767.09 217.11 1673.07 350.4 1653.7 410.01 1532.92"/><polygon class="cls-1" points="1061.33 1074.64 1120.94 1195.42 1254.24 1214.79 1157.78 1308.81 1180.55 1441.56 1061.33 1378.88 942.11 1441.56 964.88 1308.81 868.43 1214.79 1001.72 1195.42 1061.33 1074.64"/><polygon class="cls-1" points="627.12 1074.64 686.73 1195.42 820.02 1214.79 723.57 1308.81 746.34 1441.56 627.12 1378.88 507.9 1441.56 530.67 1308.81 434.21 1214.79 567.51 1195.42 627.12 1074.64"/><polygon class="cls-1" points="192.9 1074.64 252.51 1195.42 385.81 1214.79 289.36 1308.81 312.13 1441.56 192.9 1378.88 73.68 1441.56 96.45 1308.81 0 1214.79 133.29 1195.42 192.9 1074.64"/><path class="cls-2" d="M1061.89,288.19q-9.06-21.43-20.11-41.75l-57,70.14A389.93,389.93,0,1,1,627.12,82.17c90.32,0,176,30.52,245.12,86.68l51.82-63.76A471.91,471.91,0,1,0,443.43,906.65a472.1,472.1,0,0,0,618.46-618.46Z"/><polygon class="cls-2" points="627.09 712.02 416.5 522.31 499.6 430.06 613.13 532.34 982.6 77.73 1078.95 156.04 627.09 712.02"/></g></g></svg>