<svg width="41" height="41" viewBox="0 0 41 41" fill="none" xmlns="http://www.w3.org/2000/svg">
<path d="M9.15088 40.5C6.69255 40.5 4.61963 39.825 2.93213 38.475C1.24463 37.125 0.400879 35.4667 0.400879 33.5V7.5C0.400879 5.56667 1.24463 3.91667 2.93213 2.55C4.61963 1.18333 6.69255 0.5 9.15088 0.5H40.4009V30.5C39.3175 30.5 38.4217 30.7917 37.7134 31.375C37.005 31.9583 36.6509 32.6667 36.6509 33.5C36.6509 34.3667 37.005 35.0833 37.7134 35.65C38.4217 36.2167 39.3175 36.5 40.4009 36.5V40.5H9.15088ZM12.2134 22.5H15.2759L16.8384 18.95H23.9009L25.4634 22.5H28.5259L21.9009 8.5H18.7759L12.2134 22.5ZM17.7134 16.9L20.2759 11.1H20.4634L23.0259 16.9H17.7134ZM9.15088 36.5H32.4634C32.2134 36.0333 32.0155 35.5583 31.8696 35.075C31.7238 34.5917 31.6509 34.0667 31.6509 33.5C31.6509 32.9667 31.7134 32.45 31.8384 31.95C31.9634 31.45 32.1717 30.9667 32.4634 30.5H9.15088C8.06755 30.5 7.17171 30.7917 6.46338 31.375C5.75505 31.9583 5.40088 32.6667 5.40088 33.5C5.40088 34.3667 5.75505 35.0833 6.46338 35.65C7.17171 36.2167 8.06755 36.5 9.15088 36.5Z" fill="#2E4242"/>
</svg>
