<svg width="41" height="38" viewBox="0 0 41 38" fill="none" xmlns="http://www.w3.org/2000/svg">
<path fill-rule="evenodd" clip-rule="evenodd" d="M4.24284 6.56299H17.6041C18.3503 6.56299 18.9916 7.04241 19.2228 7.74819C19.1841 7.93624 19.1616 8.13126 19.1616 8.3286V25.7827C18.7103 25.4589 18.2078 25.193 17.6041 25.193H4.24284V8.32512V6.56299ZM22.0891 6.56531H35.4541V25.2081H22.1353C21.5053 25.2081 20.9953 25.4983 20.5366 25.8385V9.47317H20.5266V8.32396C20.5266 8.12894 20.5066 7.93624 20.4678 7.75051C20.7003 7.04589 21.3403 6.56531 22.0891 6.56531ZM2.09909 8.85677H3.03659V26.3121H3.66159V28.7243H2.09909C2.03284 28.7243 1.96159 28.6987 1.87409 28.5966C1.76539 28.4543 1.70886 28.2834 1.71284 28.109V9.47317C1.71284 9.26422 1.78784 9.0901 1.87534 8.98563C1.96159 8.88347 2.03284 8.85677 2.09909 8.85677ZM36.6616 8.92294H37.4341C37.6641 8.92294 37.9116 9.13537 37.9116 9.50335V28.0765C37.9116 28.4445 37.6641 28.6569 37.4341 28.6569H20.8903C20.7366 28.6569 20.5803 28.5525 20.4903 28.3807C20.5028 28.2878 20.5366 28.2031 20.5366 28.1079V27.4601C20.8153 26.8449 21.4566 26.333 22.1366 26.333H36.6616V8.92294ZM4.91159 26.3121H8.66159V31.4313L7.51659 30.8985C7.28988 30.7934 7.03997 30.7387 6.78659 30.7387C6.53322 30.7387 6.28331 30.7934 6.05659 30.8985L4.91159 31.4325V26.3121ZM9.91159 26.3121H17.6041C18.2841 26.3121 18.8828 26.7149 19.1616 27.3197V28.0765C19.1616 28.1346 19.1741 28.1891 19.1791 28.246V28.6117C19.1016 28.6952 19.0353 28.7243 18.9741 28.7243H9.91159V26.3121Z" fill="#2E4242"/>
</svg>
