<svg width="32" height="32" viewBox="0 0 28 28" fill="none" xmlns="http://www.w3.org/2000/svg">
<path d="M14.1512 27.8648C12.3401 27.8682 10.5462 27.5136 8.87255 26.8215C7.19893 26.1293 5.67859 25.1133 4.39889 23.8317C-0.979317 18.4535 -0.979317 9.70317 4.39889 4.32496C5.67669 3.03999 7.19667 2.02122 8.87083 1.32761C10.545 0.634002 12.3401 0.279335 14.1523 0.284136C17.8367 0.284136 21.3004 1.71862 23.9045 4.32496C26.5098 6.93021 27.9454 10.3939 27.9454 14.0783C27.9454 17.7628 26.5109 21.2265 23.9045 23.8317C22.6246 25.1133 21.1041 26.1293 19.4303 26.8214C17.7565 27.5136 15.9624 27.8682 14.1512 27.8648ZM14.1523 2.49103C12.63 2.48671 11.122 2.78449 9.71559 3.36712C8.30921 3.94975 7.03241 4.80565 5.95917 5.88524C3.77103 8.07338 2.56606 10.9832 2.56606 14.0783C2.56606 17.1735 3.77103 20.0822 5.95917 22.2714C10.4767 26.789 17.8279 26.7901 22.3443 22.2714C24.5324 20.0833 25.7385 17.1735 25.7385 14.0783C25.7385 10.9832 24.5335 8.07448 22.3443 5.88524C21.271 4.80598 19.9944 3.95029 18.5882 3.36768C17.1821 2.78506 15.6743 2.4871 14.1523 2.49103Z" fill="#2E4242"/>
<path d="M9.4705 19.8626C9.25206 19.8631 9.0384 19.7987 8.85664 19.6775C8.67487 19.5564 8.53321 19.3839 8.44962 19.1821C8.36603 18.9803 8.34429 18.7582 8.38715 18.544C8.43002 18.3298 8.53555 18.1332 8.69036 17.979L18.0531 8.61628C18.1556 8.51383 18.2772 8.43256 18.4111 8.37712C18.5449 8.32167 18.6884 8.29314 18.8333 8.29314C18.9781 8.29314 19.1216 8.32167 19.2555 8.37712C19.3893 8.43256 19.5109 8.51383 19.6134 8.61628C19.7158 8.71873 19.7971 8.84035 19.8526 8.97421C19.908 9.10807 19.9365 9.25153 19.9365 9.39642C19.9365 9.5413 19.908 9.68477 19.8526 9.81863C19.7971 9.95248 19.7158 10.0741 19.6134 10.1766L10.2506 19.5393C10.1485 19.6421 10.0269 19.7236 9.89297 19.7791C9.75906 19.8346 9.61546 19.863 9.4705 19.8626Z" fill="#2E4242"/>
<path d="M18.8332 19.8626C18.6883 19.8628 18.5448 19.8343 18.4109 19.7788C18.277 19.7233 18.1554 19.6419 18.0531 19.5393L8.69033 10.1766C8.58788 10.0741 8.50661 9.95248 8.45117 9.81863C8.39572 9.68477 8.36719 9.5413 8.36719 9.39642C8.36719 9.25153 8.39572 9.10807 8.45117 8.97421C8.50661 8.84035 8.58788 8.71873 8.69033 8.61628C8.79278 8.51383 8.9144 8.43256 9.04826 8.37712C9.18212 8.32167 9.32558 8.29314 9.47047 8.29314C9.61535 8.29314 9.75882 8.32167 9.89268 8.37712C10.0265 8.43256 10.1482 8.51383 10.2506 8.61628L19.6134 17.979C19.7682 18.1332 19.8737 18.3298 19.9166 18.544C19.9594 18.7582 19.9377 18.9803 19.8541 19.1821C19.7705 19.3839 19.6289 19.5564 19.4471 19.6775C19.2653 19.7987 19.0517 19.8631 18.8332 19.8626Z" fill="#2E4242"/>
</svg>
