<svg width="41" height="41" viewBox="0 0 41 41" fill="none" xmlns="http://www.w3.org/2000/svg">
<path d="M12.8908 20.5C10.6408 20.5744 8.80051 21.5268 7.36995 23.3571H4.5783C3.4394 23.3571 2.48106 23.0558 1.7033 22.4531C0.925512 21.8505 0.536621 20.9688 0.536621 19.808C0.536621 14.5551 1.39773 11.9286 3.11995 11.9286C3.20328 11.9286 3.50536 12.0848 4.0262 12.3973C4.54703 12.7098 5.22411 13.026 6.05745 13.346C6.89078 13.6659 7.71717 13.8259 8.53662 13.8259C9.46717 13.8259 10.3908 13.6548 11.3074 13.3125C11.238 13.8631 11.2033 14.3542 11.2033 14.7857C11.2033 16.8542 11.7658 18.7589 12.8908 20.5ZM35.2033 34.7187C35.2033 36.5044 34.6963 37.9144 33.6824 38.9487C32.6686 39.9829 31.3213 40.5 29.6408 40.5H11.4324C9.7519 40.5 8.40468 39.9829 7.3908 38.9487C6.3769 37.9144 5.86995 36.5044 5.86995 34.7187C5.86995 33.9301 5.89426 33.16 5.94287 32.4085C5.99149 31.657 6.08871 30.846 6.23455 29.9754C6.38038 29.1049 6.5644 28.2976 6.78662 27.5536C7.00884 26.8095 7.30745 26.0841 7.68245 25.3772C8.05745 24.6704 8.48801 24.0677 8.97412 23.5692C9.46024 23.0707 10.054 22.6726 10.7554 22.375C11.4568 22.0774 12.2311 21.9286 13.0783 21.9286C13.2172 21.9286 13.5158 22.0885 13.9741 22.4085C14.4325 22.7284 14.9394 23.0856 15.4949 23.4799C16.0505 23.8742 16.7936 24.2314 17.7241 24.5513C18.6547 24.8713 19.5922 25.0313 20.5366 25.0313C21.4811 25.0313 22.4186 24.8713 23.3491 24.5513C24.2797 24.2314 25.0227 23.8742 25.5783 23.4799C26.1338 23.0856 26.6408 22.7284 27.0991 22.4085C27.5575 22.0885 27.8561 21.9286 27.9949 21.9286C28.8422 21.9286 29.6165 22.0774 30.3179 22.375C31.0193 22.6726 31.613 23.0707 32.0991 23.5692C32.5852 24.0677 33.0158 24.6704 33.3908 25.3772C33.7658 26.0841 34.0644 26.8095 34.2866 27.5536C34.5088 28.2976 34.6929 29.1049 34.8387 29.9754C34.9845 30.846 35.0818 31.657 35.1304 32.4085C35.179 33.16 35.2033 33.9301 35.2033 34.7187ZM13.8699 6.2143C13.8699 7.79167 13.3491 9.1384 12.3074 10.2545C11.2658 11.3705 10.0088 11.9286 8.53662 11.9286C7.0644 11.9286 5.80746 11.3705 4.7658 10.2545C3.72413 9.1384 3.2033 7.79167 3.2033 6.2143C3.2033 4.63691 3.72413 3.29018 4.7658 2.17411C5.80746 1.05804 7.0644 0.5 8.53662 0.5C10.0088 0.5 11.2658 1.05804 12.3074 2.17411C13.3491 3.29018 13.8699 4.63691 13.8699 6.2143ZM28.5366 14.7857C28.5366 17.1518 27.7554 19.1719 26.1929 20.846C24.6304 22.5201 22.745 23.3571 20.5366 23.3571C18.3283 23.3571 16.4429 22.5201 14.8804 20.846C13.3179 19.1719 12.5366 17.1518 12.5366 14.7857C12.5366 12.4197 13.3179 10.3996 14.8804 8.72546C16.4429 7.05135 18.3283 6.2143 20.5366 6.2143C22.745 6.2143 24.6304 7.05135 26.1929 8.72546C27.7554 10.3996 28.5366 12.4197 28.5366 14.7857ZM40.5366 19.808C40.5366 20.9688 40.1477 21.8505 39.3699 22.4531C38.5922 23.0558 37.6339 23.3571 36.4949 23.3571H33.7033C32.2727 21.5268 30.4324 20.5744 28.1824 20.5C29.3074 18.7589 29.8699 16.8542 29.8699 14.7857C29.8699 14.3542 29.8352 13.8631 29.7658 13.3125C30.6825 13.6548 31.6061 13.8259 32.5366 13.8259C33.3561 13.8259 34.1825 13.6659 35.0158 13.346C35.8491 13.026 36.5262 12.7098 37.047 12.3973C37.5679 12.0848 37.87 11.9286 37.9533 11.9286C39.6755 11.9286 40.5366 14.5551 40.5366 19.808ZM37.8699 6.2143C37.8699 7.79167 37.3491 9.1384 36.3074 10.2545C35.2658 11.3705 34.0088 11.9286 32.5366 11.9286C31.0644 11.9286 29.8075 11.3705 28.7658 10.2545C27.7241 9.1384 27.2033 7.79167 27.2033 6.2143C27.2033 4.63691 27.7241 3.29018 28.7658 2.17411C29.8075 1.05804 31.0644 0.5 32.5366 0.5C34.0088 0.5 35.2658 1.05804 36.3074 2.17411C37.3491 3.29018 37.8699 4.63691 37.8699 6.2143Z" fill="#2E4242"/>
</svg>
