<svg width="40" height="30" viewBox="0 0 40 30" fill="none" xmlns="http://www.w3.org/2000/svg">
<path d="M2.23706 29.381C2.33861 29.5661 2.49991 29.7226 2.70204 29.8322C2.90417 29.9419 3.13874 30.0001 3.37826 30C6.99332 30 10.0516 29.2499 13.5256 27.5025C15.211 27.7303 18.5389 28.0119 20 28.0119C31.0291 28.0119 40 21.7295 40 14.0049C40 6.28027 31.0291 0 20 0C8.9709 0 0 6.28027 0 14.0049C0 17.6458 2.05819 21.1642 5.68082 23.7713C4.84464 25.3837 3.74454 26.8867 2.4134 28.2354C2.10102 28.5578 2.03048 29.0049 2.23706 29.381ZM2.51921 14.0049C2.51921 7.46669 10.3615 2.14716 20 2.14716C29.6385 2.14716 37.4808 7.46669 37.4808 14.0049C37.4808 20.5431 29.6385 25.8626 20 25.8626C18.554 25.8626 14.7903 25.5316 13.5181 25.321C13.2103 25.2738 12.8929 25.3226 12.6238 25.4585C10.2759 26.6836 8.22774 27.3843 6.03602 27.6809C6.97513 26.4709 7.76051 25.1791 8.37889 23.8272C8.47896 23.6094 8.49275 23.3697 8.41815 23.1446C8.34355 22.9195 8.18466 22.7214 7.96574 22.5806C4.45144 20.3109 2.51921 17.2632 2.51921 14.0049Z" fill="#EAF4F4"/>
</svg>
