<svg width="34" height="30" viewBox="0 0 34 30" fill="none" xmlns="http://www.w3.org/2000/svg">
<path d="M15.9435 24H18.2049C19.6855 24 20.944 23.5625 21.9805 22.6875C23.0169 21.8125 23.5351 20.75 23.5351 19.5C23.5351 18.25 23.0169 17.1875 21.9805 16.3125C20.944 15.4375 19.6855 15 18.2049 15H15.9435C14.4629 15 13.2044 15.4375 12.1679 16.3125C11.1315 17.1875 10.6133 18.25 10.6133 19.5C10.6133 20.75 11.1315 21.8125 12.1679 22.6875C13.2044 23.5625 14.4629 24 15.9435 24ZM15.9435 21.75C15.1359 21.75 14.4495 21.5312 13.8841 21.0938C13.3188 20.6562 13.0361 20.125 13.0361 19.5C13.0361 18.875 13.3188 18.3438 13.8841 17.9062C14.4495 17.4688 15.1359 17.25 15.9435 17.25H18.2049C19.0125 17.25 19.699 17.4688 20.2643 17.9062C20.8296 18.3438 21.1123 18.875 21.1123 19.5C21.1123 20.125 20.8296 20.6562 20.2643 21.0938C19.699 21.5312 19.0125 21.75 18.2049 21.75H15.9435ZM7.38281 12H10.6133C11.9593 12 13.1034 11.5625 14.0456 10.6875C14.9879 9.8125 15.459 8.75 15.459 7.5H13.0361C13.0361 8.125 12.8006 8.65625 12.3295 9.09375C11.8584 9.53125 11.2863 9.75 10.6133 9.75H7.38281V12ZM23.5351 12H26.7656V9.75H23.5351C22.8621 9.75 22.2901 9.53125 21.819 9.09375C21.3478 8.65625 21.1123 8.125 21.1123 7.5H18.6894C18.6894 8.75 19.1606 9.8125 20.1028 10.6875C21.045 11.5625 22.1891 12 23.5351 12ZM17.0742 30C14.8398 30 12.74 29.6062 10.7748 28.8187C8.8096 28.0312 7.10014 26.9625 5.64643 25.6125C4.19272 24.2625 3.04187 22.675 2.19387 20.85C1.34587 19.025 0.921875 17.075 0.921875 15C0.921875 12.925 1.34587 10.975 2.19387 9.15C3.04187 7.325 4.19272 5.7375 5.64643 4.3875C7.10014 3.0375 8.8096 1.96875 10.7748 1.18125C12.74 0.39375 14.8398 0 17.0742 0C19.3086 0 21.4084 0.39375 23.3736 1.18125C25.3388 1.96875 27.0483 3.0375 28.502 4.3875C29.9557 5.7375 31.1065 7.325 31.9545 9.15C32.8025 10.975 33.2265 12.925 33.2265 15C33.2265 17.075 32.8025 19.025 31.9545 20.85C31.1065 22.675 29.9557 24.2625 28.502 25.6125C27.0483 26.9625 25.3388 28.0312 23.3736 28.8187C21.4084 29.6062 19.3086 30 17.0742 30ZM17.0742 27C20.6816 27 23.737 25.8375 26.2407 23.5125C28.7443 21.1875 29.9961 18.35 29.9961 15C29.9961 11.65 28.7443 8.8125 26.2407 6.4875C23.737 4.1625 20.6816 3 17.0742 3C13.4669 3 10.4114 4.1625 7.90776 6.4875C5.40415 8.8125 4.15234 11.65 4.15234 15C4.15234 18.35 5.40415 21.1875 7.90776 23.5125C10.4114 25.8375 13.4669 27 17.0742 27Z" fill="#EAF4F4"/>
</svg>
