<svg width="32" height="32" viewBox="0 0 32 32" fill="none" xmlns="http://www.w3.org/2000/svg">
<path d="M16 0.5C7.453 0.5 0.5 7.453 0.5 16C0.5 24.547 7.453 31.5 16 31.5C24.547 31.5 31.5 24.547 31.5 16C31.5 7.453 24.547 0.5 16 0.5ZM16 28.5C9.107 28.5 3.5 22.893 3.5 16C3.5 9.107 9.107 3.5 16 3.5C22.893 3.5 28.5 9.107 28.5 16C28.5 22.893 22.893 28.5 16 28.5Z" fill="#2E4242"/>
<path d="M16 11.1C15.6022 11.1 15.2206 11.258 14.9393 11.5393C14.658 11.8206 14.5 12.2022 14.5 12.6V23.674C14.5 24.0718 14.658 24.4534 14.9393 24.7347C15.2206 25.016 15.6022 25.174 16 25.174C16.3978 25.174 16.7794 25.016 17.0607 24.7347C17.342 24.4534 17.5 24.0718 17.5 23.674V12.6C17.5 12.2022 17.342 11.8206 17.0607 11.5393C16.7794 11.258 16.3978 11.1 16 11.1ZM16 6.826C15.6022 6.826 15.2206 6.98404 14.9393 7.26534C14.658 7.54665 14.5 7.92818 14.5 8.326V8.331C14.5 9.159 15.171 9.829 16 9.829C16.3915 9.8189 16.7636 9.65627 17.0369 9.37579C17.3103 9.0953 17.4632 8.71915 17.4632 8.3275C17.4632 7.93586 17.3103 7.5597 17.0369 7.27922C16.7636 6.99874 16.3915 6.83611 16 6.826Z" fill="#2E4242"/>
</svg>
