<svg xmlns="http://www.w3.org/2000/svg" xmlns:xlink="http://www.w3.org/1999/xlink" viewBox="0 0 3000 3000" id="lady-doing-plank-to-increase-the-focus"><defs><linearGradient id="g" x1="421.666" x2="402.161" y1="2038.3" y2="2072.083" gradientUnits="userSpaceOnUse"><stop offset="0" stop-color="#fcb37e"></stop><stop offset=".005" stop-color="#fcb47f"></stop><stop offset=".164" stop-color="#fdc592"></stop><stop offset=".348" stop-color="#fed1a0"></stop><stop offset=".579" stop-color="#ffd8a8"></stop><stop offset="1" stop-color="#ffdaaa"></stop></linearGradient><linearGradient id="a" x1="762.696" x2="878.934" y1="2026.944" y2="2026.944" gradientUnits="userSpaceOnUse"><stop offset="0" stop-color="#ffdaaa"></stop><stop offset=".421" stop-color="#ffd8a8"></stop><stop offset=".652" stop-color="#fed1a0"></stop><stop offset=".836" stop-color="#fdc592"></stop><stop offset=".995" stop-color="#fcb47f"></stop><stop offset="1" stop-color="#fcb37e"></stop></linearGradient><linearGradient id="h" x1="986.775" x2="935.556" y1="1597.181" y2="1961.623" xlink:href="#a"></linearGradient><linearGradient id="j" x1="613.79" x2="1007.894" y1="1763.333" y2="1763.333" gradientUnits="userSpaceOnUse"><stop offset="0" stop-color="#ff7044"></stop><stop offset="1" stop-color="#f92814"></stop></linearGradient><linearGradient id="k" x1="1007.896" x2="613.8" y1="1812.016" y2="1812.016" gradientUnits="userSpaceOnUse"><stop offset="0" stop-color="#f92814" stop-opacity="0"></stop><stop offset="1" stop-color="#c1272d"></stop></linearGradient><linearGradient id="m" x1="452.661" x2="547.178" y1="1628.529" y2="1382.305" gradientUnits="userSpaceOnUse"><stop offset="0" stop-color="#fcb37e" stop-opacity="0"></stop><stop offset="1" stop-color="#ff7044"></stop></linearGradient><linearGradient id="n" x1="451.114" x2="506.479" y1="1361.259" y2="1675.245" gradientUnits="userSpaceOnUse"><stop offset="0" stop-color="#3c3b41"></stop><stop offset="1" stop-color="#1a1a1a"></stop></linearGradient><linearGradient id="b" x1="2490.179" x2="2667.71" y1="2002.625" y2="2002.625" gradientUnits="userSpaceOnUse"><stop offset="0" stop-color="#f9f7fc"></stop><stop offset="1" stop-color="#f0ddfc"></stop></linearGradient><linearGradient id="c" x1="2530.455" x2="2667.709" y1="2002.628" y2="2002.628" gradientUnits="userSpaceOnUse"><stop offset="0" stop-color="#92f37f"></stop><stop offset="1" stop-color="#4ab272"></stop></linearGradient><linearGradient id="o" x1="2514.557" x2="2731.745" y1="1969.433" y2="1969.433" xlink:href="#b"></linearGradient><linearGradient id="p" x1="2540.302" x2="2668.933" y1="1993.435" y2="1951.64" gradientUnits="userSpaceOnUse"><stop offset="0" stop-color="#f0ddfc" stop-opacity="0"></stop><stop offset=".289" stop-color="#c8b7e0" stop-opacity=".289"></stop><stop offset=".592" stop-color="#a595c8" stop-opacity=".592"></stop><stop offset=".84" stop-color="#8f81b8" stop-opacity=".84"></stop><stop offset="1" stop-color="#8779b3"></stop></linearGradient><linearGradient id="q" x1="1899.001" x2="1905.15" y1="1615.762" y2="1968.063" gradientUnits="userSpaceOnUse"><stop offset="0" stop-color="#4a98f7"></stop><stop offset="1" stop-color="#0469bc"></stop></linearGradient><linearGradient id="s" x1="2655.504" x2="2731.745" y1="1971.897" y2="1971.897" xlink:href="#c"></linearGradient><linearGradient id="t" x1="1167.682" x2="1320.246" y1="1782.263" y2="1859.997" xlink:href="#c"></linearGradient><linearGradient id="u" x1="1263.286" x2="1210.768" y1="1953.482" y2="1953.482" gradientUnits="userSpaceOnUse"><stop offset="0" stop-color="#4ab272"></stop><stop offset=".204" stop-color="#60c676"></stop><stop offset=".517" stop-color="#7bdf7b"></stop><stop offset=".792" stop-color="#8cee7e"></stop><stop offset="1" stop-color="#92f37f"></stop></linearGradient><linearGradient id="w" x1="2605.476" x2="2635.046" y1="2003.407" y2="2003.407" xlink:href="#c"></linearGradient><linearGradient id="x" x1="2616.606" x2="2643.046" y1="2036.152" y2="2036.152" xlink:href="#c"></linearGradient><linearGradient id="y" x1="2621.906" x2="2647.046" y1="2078.122" y2="2078.122" xlink:href="#c"></linearGradient><linearGradient id="z" x1="2541.936" x2="2574.438" y1="2033.325" y2="2033.325" xlink:href="#c"></linearGradient><linearGradient id="A" x1="2523.396" x2="2562.438" y1="2109.267" y2="2109.267" xlink:href="#c"></linearGradient><linearGradient id="B" x1="2539.816" x2="2569.804" y1="2068.84" y2="2068.84" xlink:href="#c"></linearGradient><linearGradient id="C" x1="2623.546" x2="2639.546" y1="1992.577" y2="1992.577" xlink:href="#c"></linearGradient><linearGradient id="D" x1="2631.546" x2="2647.546" y1="2026.577" y2="2026.577" xlink:href="#c"></linearGradient><linearGradient id="E" x1="2636.546" x2="2652.546" y1="2065.577" y2="2065.577" xlink:href="#c"></linearGradient><linearGradient id="F" x1="2563.474" x2="2579.803" y1="2027.178" y2="2027.178" gradientTransform="rotate(74.342 2571.638 2027.178)" xlink:href="#c"></linearGradient><linearGradient id="G" x1="2562" x2="2578.329" y1="2062.075" y2="2062.075" gradientTransform="rotate(74.342 2570.165 2062.075)" xlink:href="#c"></linearGradient><linearGradient id="H" x1="2556.289" x2="2572.618" y1="2100.977" y2="2100.977" gradientTransform="rotate(74.342 2564.453 2100.977)" xlink:href="#c"></linearGradient><linearGradient id="d" x1="1883.536" x2="1926.378" y1="1818.259" y2="1818.259" gradientUnits="userSpaceOnUse"><stop offset="0" stop-color="#0469bc" stop-opacity="0"></stop><stop offset="1" stop-color="#0469bc"></stop></linearGradient><linearGradient id="I" x1="2286.536" x2="2329.378" y1="1798.919" y2="1798.919" xlink:href="#d"></linearGradient><linearGradient id="J" x1="1515.086" x2="1573.893" y1="1743.392" y2="1743.392" xlink:href="#d"></linearGradient><linearGradient id="K" x1="2624.753" x2="2680.65" y1="1876.213" y2="1876.213" xlink:href="#c"></linearGradient><linearGradient id="L" x1="894.533" x2="772.609" y1="1804.745" y2="1828.697" gradientUnits="userSpaceOnUse"><stop offset=".248" stop-color="#f92814" stop-opacity="0"></stop><stop offset=".762" stop-color="#c1272d"></stop></linearGradient><radialGradient id="l" cx="475.667" cy="1566.14" r="209.94" xlink:href="#a"></radialGradient><radialGradient id="M" cx="570.514" cy="1895.864" r="273.798" xlink:href="#a"></radialGradient><filter id="e" width="703" height="295" x="610.974" y="1680" color-interpolation-filters="sRGB" filterUnits="userSpaceOnUse"><feFlood flood-color="#fff" result="bg"></feFlood><feBlend in="SourceGraphic" in2="bg"></feBlend></filter><filter id="f" color-interpolation-filters="sRGB" filterUnits="userSpaceOnUse"><feColorMatrix values="-1 0 0 0 1 0 -1 0 0 1 0 0 -1 0 1 0 0 0 1 0"></feColorMatrix></filter></defs><g style="isolation:isolate"><path fill="url(#g)" d="M437.407 2079.673c-5.747.394-24.431.941-41.701-11.728a61.59 61.59 0 0 1-18.244-21.502c-.396-1.213-4.997-15.843 1.628-21.503 5.623-4.802 15.946-.252 25.086 3.91 25.552 11.635 52.334 35.558 47.37 45.727-1.2 2.458-4.629 4.879-14.14 5.096Z"></path><g fill="#c6c6c6" opacity=".31"><path d="M188.507 838.52h424.787v145.975H349.079v284.651h207.285v145.975H349.079v445.224H188.507ZM741.743 1807.794q-62.78-67.126-62.769-189.767v-537.189q0-122.618 62.77-189.767 62.746-67.126 181.009-67.148 118.24 0 181.009 67.148 62.746 67.16 62.769 189.767v537.189q0 122.618-62.77 189.767-62.78 67.16-181.008 67.149-118.24 0-181.01-67.149Zm264.215-179.549V1070.62q0-100.723-83.206-100.722-83.205 0-83.205 100.722v557.625q0 100.722 83.205 100.723 83.206 0 83.206-100.723ZM1324.905 1809.254q-60.591-65.689-60.58-185.389V1075q0-119.676 60.58-185.388 60.557-65.688 175.9-65.688 115.297 0 175.9 65.688 60.557 65.689 60.58 185.388v108.022H1585.47v-118.24q0-94.872-80.286-94.883-80.298 0-80.286 94.884v570.762q0 93.435 80.286 93.424 80.264 0 80.286-93.424V1479.35h151.814v144.514q0 119.712-60.58 185.389-60.59 65.69-175.9 65.69-115.33 0-175.9-65.69ZM1889.092 1808.524q-61.31-66.407-61.31-190.497V838.52h160.573v791.185q0 52.55 21.166 75.907 21.144 23.367 60.58 23.356 39.413 0 60.58-23.356 21.143-23.334 21.166-75.907V838.52h154.733v779.507q0 124.09-61.309 190.497-61.31 66.442-178.09 66.42-116.802 0-178.089-66.42ZM2452.545 1808.524q-59.873-66.407-59.85-190.497v-58.39h151.814v70.068q0 99.285 83.206 99.263 40.85 0 62.04-24.086 21.143-24.086 21.166-78.097 0-64.218-29.195-113.13-29.218-48.89-108.022-117.51-99.285-87.585-138.676-158.383-39.413-70.787-39.413-159.843 0-121.148 61.31-187.577 61.309-66.408 178.089-66.42 115.297 0 174.44 66.42 59.12 66.44 59.12 190.496v42.333H2716.76v-52.55q0-52.552-20.437-76.637-20.46-24.087-59.85-24.086-80.297 0-80.286 97.803 0 55.493 29.925 103.642 29.902 48.172 108.752 116.78 100.722 87.585 138.676 159.113 37.942 71.54 37.953 167.871 0 125.561-62.039 192.687-62.062 67.16-180.28 67.15-116.802 0-176.629-66.42Z"></path></g><g fill="#e1e1e3" opacity=".31"><path d="M158.507 838.52h424.787v145.975H319.079v284.651h207.285v145.975H319.079v445.224H158.507ZM711.743 1807.794q-62.78-67.126-62.769-189.767v-537.189q0-122.618 62.77-189.767 62.746-67.126 181.009-67.148 118.24 0 181.009 67.148 62.746 67.16 62.769 189.767v537.189q0 122.618-62.77 189.767-62.78 67.16-181.008 67.149-118.24 0-181.01-67.149Zm264.215-179.549V1070.62q0-100.723-83.206-100.722-83.205 0-83.205 100.722v557.625q0 100.722 83.205 100.723 83.206 0 83.206-100.723ZM1294.905 1809.254q-60.591-65.689-60.58-185.389V1075q0-119.676 60.58-185.388 60.557-65.688 175.9-65.688 115.297 0 175.9 65.688 60.557 65.689 60.58 185.388v108.022H1555.47v-118.24q0-94.872-80.286-94.883-80.298 0-80.286 94.884v570.762q0 93.435 80.286 93.424 80.264 0 80.286-93.424V1479.35h151.814v144.514q0 119.712-60.58 185.389-60.59 65.69-175.9 65.69-115.33 0-175.9-65.69ZM1859.092 1808.524q-61.31-66.407-61.31-190.497V838.52h160.573v791.185q0 52.55 21.166 75.907 21.144 23.367 60.58 23.356 39.413 0 60.58-23.356 21.143-23.334 21.166-75.907V838.52h154.733v779.507q0 124.09-61.309 190.497-61.31 66.442-178.09 66.42-116.802 0-178.089-66.42ZM2422.545 1808.524q-59.873-66.407-59.85-190.497v-58.39h151.814v70.068q0 99.285 83.206 99.263 40.85 0 62.04-24.086 21.143-24.086 21.166-78.097 0-64.218-29.195-113.13-29.218-48.89-108.022-117.51-99.285-87.585-138.676-158.383-39.413-70.787-39.413-159.843 0-121.148 61.31-187.577 61.309-66.408 178.089-66.42 115.297 0 174.44 66.42 59.12 66.44 59.12 190.496v42.333H2686.76v-52.55q0-52.552-20.437-76.637-20.46-24.087-59.85-24.086-80.297 0-80.286 97.803 0 55.493 29.925 103.642 29.902 48.172 108.752 116.78 100.722 87.585 138.676 159.113 37.942 71.54 37.953 167.871 0 125.561-62.039 192.687-62.062 67.16-180.28 67.15-116.802 0-176.629-66.42Z"></path></g><path fill="url(#a)" d="M872.546 1920.577c1.248 2.809.202 8.782.274 11.902l.324 14.066.623 27.05 1.247 54.098c.434 18.85 1.19 37.69 1.772 56.536.736 23.847 9.133 59.59-13.24 76.348-20.918 15.668-53.603-.294-55-1-47.137-23.792-56.26-116.912-35-185 11.014-35.276 38.723-91.183 67-88 14.51 1.634 25.116 18.373 32 34Z"></path><path fill="url(#h)" d="M1262.546 1954.577a110.395 110.395 0 0 1-36 18c-102.189-1.178-150.504-3.172-175-5-6.374-.475-21.694-1.654-43.858-2.99-21.387-1.29-37.084-1.975-50.652-2.69a580.571 580.571 0 0 1-70.49-7.32c-63.95-10.26-96.69-15.8-134-36-18.67-10.11-87.54-48.7-121-131-7.36-18.11-21.12-58.27-17-109 2.42-29.86 5.19-63.98 29-88 29.4-29.66 74.27-27.15 119-24 86.46 6.08 150.26 40.69 194 65 14.75 8.2 32.16 18.6 51.35 31.65a692.673 692.673 0 0 1 64.975 50.067 41.69 41.69 0 0 0 29.443 10.122 445.588 445.588 0 0 1 61.232 1.161c28.135 2.473 45.266 3.98 65 12 10.84 4.407 53.248 21.5 73 65 23.735 52.275 4.08 120.171-39 153Z"></path><path fill="#fbbf7d" d="M1262.546 1924.577a110.395 110.395 0 0 1-36 18c-102.189-1.178-150.504-3.172-175-5-6.374-.475-21.694-1.654-43.858-2.99-21.387-1.29-37.084-1.975-50.652-2.69a580.571 580.571 0 0 1-70.49-7.32c-63.95-10.26-96.69-15.8-134-36-18.67-10.11-87.54-48.7-121-131a242.944 242.944 0 0 1-17.26-75.325 240.896 240.896 0 0 0 17.26 105.325c33.46 82.3 102.33 120.89 121 131 37.31 20.2 70.05 25.74 134 36a580.571 580.571 0 0 0 70.49 7.32c13.568.715 29.265 1.4 50.652 2.69 22.164 1.336 37.484 2.515 43.858 2.99 24.496 1.828 72.811 3.822 175 5a110.395 110.395 0 0 0 36-18c34.2-26.062 53.632-74.223 48.317-119.125-4.008 35.126-21.682 68.828-48.317 89.125Z"></path><g mask="url(#i)"><path fill="#f9b169" d="M1262.546 1924.577a110.395 110.395 0 0 1-36 18c-102.189-1.178-150.504-3.172-175-5-6.374-.475-21.694-1.654-43.858-2.99-21.387-1.29-37.084-1.975-50.652-2.69a580.571 580.571 0 0 1-70.49-7.32c-63.95-10.26-96.69-15.8-134-36-18.67-10.11-87.54-48.7-121-131a242.944 242.944 0 0 1-17.26-75.325 240.896 240.896 0 0 0 17.26 105.325c33.46 82.3 102.33 120.89 121 131 37.31 20.2 70.05 25.74 134 36a580.571 580.571 0 0 0 70.49 7.32c13.568.715 29.265 1.4 50.652 2.69 22.164 1.336 37.484 2.515 43.858 2.99 24.496 1.828 72.811 3.822 175 5a110.395 110.395 0 0 0 36-18c34.2-26.062 53.632-74.223 48.317-119.125-4.008 35.126-21.682 68.828-48.317 89.125Z" opacity=".08" style="mix-blend-mode:multiply"></path></g><path fill="url(#j)" d="M1007.894 1663.227q-.12 4.966-.4 10.51c-1.2 24.43-4.7 57.77-11.95 103.84-3.64 23.13-7.55 45.14-11.58 65.93v.01c-.02.11-.04.22-.07.33-8.11 41.88-16.74 78.8-24.74 109.9q-1.065 4.14-2.12 8.15a580.574 580.574 0 0 1-70.49-7.32c-63.95-10.26-96.69-15.8-134-36-2.94-1.6-7.14-3.9-12.25-6.98-27.27-16.39-80.57-54.7-108.75-124.02-7.36-18.11-21.12-58.27-17-109 2.42-29.86 5.19-63.98 29-88 22.43-22.63 53.87-26.53 87.38-25.71h.09c10.38.26 20.96.97 31.53 1.71 86.46 6.08 150.26 40.69 194 65a670.32 670.32 0 0 1 51.35 31.65Z"></path><path fill="url(#k)" d="M995.546 1747.577a1892.925 1892.925 0 0 1-22.683 119.144 75.401 75.401 0 0 1-85.432 57.998l-.885-.142c-63.95-10.26-96.69-15.8-134-36-18.67-10.11-87.54-48.7-121-131a242.944 242.944 0 0 1-17.26-75.325 240.896 240.896 0 0 0 17.26 105.325c33.46 82.3 102.33 120.89 121 131 37.31 20.2 70.05 25.74 134 36a580.571 580.571 0 0 0 70.49 7.32 1882.12 1882.12 0 0 0 38.51-184.32c7.25-46.07 10.75-79.41 11.95-103.84q.285-5.55.4-10.51c-.543-.369-1.079-.728-1.619-1.093-1.799 22.111-5.155 50.008-10.731 85.443Z"></path><path fill="#fbbf7d" d="M341.546 2107.577c5.866-15.56 11.924-25.879 22-38 9.738-11.714 14.607-17.571 22-20 6.427-2.11 13.09-1.685 20.78.802-22.836-13.548-37.321-20.222-50.78-15.802-7.393 2.429-12.262 8.286-22 20a123.585 123.585 0 0 0-22 38c-12.907 36.932-6.466 77.915 3 80a30.053 30.053 0 0 0 4 0c6.304-.07 11.456-.04 15 0a142.333 142.333 0 0 1 8-65Z"></path><path fill="url(#l)" d="M669.546 1579.577c-4.11 25.82 2.78 42.63-4.85 57.56-4.08 7.99-8.03 15.44-11.15 23.44-9.5 24.39-14.38 61.73 7 118-37.16-12.66-62.95-21.46-85-29-15.86-5.43-32.07-9.8-48-15-31.79-10.38-39.19-13.71-51-11-10.83 2.49-19.22 8.99-36 22-17.81 13.81-17.47 17.63-27 21-15.08 5.32-35.01 2.49-45-9-5.26-6.04-4.02-10.19-8-19-3.4-7.52-14.54-25.26-35-32a53.28 53.28 0 0 0-19.254-2.542 4.498 4.498 0 0 1-4.654-5.228c2.63-15.566 3.549-36.369-4.092-58.23-4.47-12.8-9.34-18.71-14-27-15.6-27.78-18.81-64.55-11.69-97.37a148.037 148.037 0 0 1 5.69-19.63c14.11-38.31 40.81-58.49 64-76 21.03-15.89 44.79-33.29 74-29a68.91 68.91 0 0 1 28 11c.74-6.53 3.38-21.18 15-33 20.29-20.65 50.96-15.38 53-15 40.75 7.66 67.96 62.16 76 102 4.11 20.36 4.82 44.89 16 97 2.75 12.82 6.4 28.55 16 31 10.24 2.61 22.91-11.01 35-24 17.64-18.95 22.49-32.12 27-31 6.22 1.54-8.26 26.51-12 50Z"></path><path fill="#fbbf7d" d="M458.546 1395.577c.74-6.53 3.38-21.18 15-33a48.73 48.73 0 0 1 7.429-6.179 51.33 51.33 0 0 0-22.43 13.18 52.062 52.062 0 0 0-11.947 19.542 73.663 73.663 0 0 1 11.948 6.457ZM669.546 1553.577a196.762 196.762 0 0 0 15.552-19.045c-.86-2.802-2.035-4.579-3.552-4.955-4.51-1.12-9.36 12.05-27 31-5.82 6.254-11.774 12.648-17.528 17.313 9.768.138 21.393-12.349 32.528-24.313Z"></path><path fill="#fbbf7d" d="M590.546 1742.577c-15.86-5.43-32.07-9.8-48-15-31.79-10.38-39.19-13.71-51-11-5.528 1.271-10.425 3.596-16.122 7.288.373-.097.743-.2 1.122-.288 11.81-2.71 19.21.62 51 11 15.93 5.2 32.14 9.57 48 15 22.05 7.54 47.84 16.34 85 29a283.538 283.538 0 0 1-4.824-13.755 68986.913 68986.913 0 0 1-65.176-22.245Z" opacity=".11"></path><path fill="#fbbf7d" d="M383.546 1750.577c-5.26-6.04-4.02-10.19-8-19-3.4-7.52-14.54-25.26-35-32a53.28 53.28 0 0 0-19.254-2.542 4.498 4.498 0 0 1-4.654-5.228c2.63-15.566 3.549-36.368-4.092-58.23-4.47-12.8-9.34-18.71-14-27-15.6-27.78-18.81-64.55-11.69-97.37a148.037 148.037 0 0 1 5.69-19.63c14.11-38.31 40.81-58.49 64-76 8.453-6.387 17.35-13.016 26.862-18.384-15.36 5.574-29.114 15.752-41.862 25.384-23.19 17.51-49.89 37.69-64 76a148.037 148.037 0 0 0-5.69 19.63c-7.12 32.82-3.91 69.59 11.69 97.37 4.66 8.29 9.53 14.2 14 27 7.641 21.862 6.721 42.664 4.092 58.23a4.498 4.498 0 0 0 4.654 5.228 53.28 53.28 0 0 1 19.254 2.542c20.46 6.74 31.6 24.48 35 32 3.98 8.81 2.74 12.96 8 19 9.99 11.49 29.92 14.32 45 9a24.468 24.468 0 0 0 9.064-5.372c-14.035 2.835-30.34-.593-39.064-10.628Z"></path><path fill="url(#m)" d="M671.546 1604.577c2.805 16.973-.408 40.827-15.733 53.409-12.03 9.875-23.065 22.86-93.267-6.409a1807.92 1807.92 0 0 0-55.863-22.192 2.594 2.594 0 0 1-1.625-2.977c1.848-8.386 4.395-26.902-5.512-44.83-2.371-4.292-6.527-11.61-15-17-12.856-8.18-34.733-11.411-50 2-12.565 11.036-16.58 30.927-9.176 49.284a1.207 1.207 0 0 1-1.876 1.4c-41.985-34.212-76.425-57.873-94.948-67.685a193.15 193.15 0 0 0-28-12 160.721 160.721 0 0 0-28.69-6.37 148.04 148.04 0 0 1 5.69-19.63c12.848-34.882 41.924-60.916 71.59-82.154 28.47-20.382 62.922-32.75 94.41-11.846.74-6.53 3.38-21.18 15-33 20.29-20.65 50.96-15.38 53-15 42.59 7.934 68.005 67.078 76 102 12.604 55.055 16 78 16 78 2.497 16.874 3.895 30.62 12.967 34.566 0 0 5.42 1.928 36.033-15.566a66.07 66.07 0 0 1 19 36Z"></path><path fill="url(#n)" d="M684.545 1579.583c-4.894 25.822-10.153 49.753-28.732 63.403-29.858 21.935-63.706 5.916-93.267-6.409a1807.92 1807.92 0 0 0-55.863-22.192 2.594 2.594 0 0 1-1.625-2.977c1.848-8.385 4.395-26.902-5.512-44.83-2.371-4.292-6.527-11.61-15-17-12.856-8.18-34.733-11.411-50 2-12.565 11.036-16.58 30.927-9.176 49.284a1.207 1.207 0 0 1-1.876 1.4c-41.985-34.212-76.425-57.873-94.948-67.684a193.15 193.15 0 0 0-28-12 160.721 160.721 0 0 0-28.69-6.37 148.04 148.04 0 0 1 5.69-19.63c12.848-34.883 41.924-60.917 71.59-82.155 28.47-20.382 62.922-32.75 94.41-11.845.74-6.53 3.38-21.18 15-33 20.29-20.65 50.96-15.38 53-15 42.59 7.933 68.005 67.077 76 102 12.604 55.054 16 78 16 78 2.497 16.873 3.895 30.618 12.967 34.565 10.854 4.721 26.402-7.028 36.033-15.565a153.264 153.264 0 0 0 32-40 179.237 179.237 0 0 1-.001 66.005Z"></path><path fill="#2c2a2d" d="m505.122 1611.11-.064.298a2.569 2.569 0 0 0 .61 2.273q-.241-1.276-.546-2.572ZM424.105 1597.373a42.514 42.514 0 0 0-1.264 4.359l.653.53a1.207 1.207 0 0 0 1.876-1.4q-.7-1.737-1.265-3.49Z"></path><path fill="#2c2a2d" d="M290.546 1501.577c12.848-34.882 41.924-60.916 71.59-82.154 22.682-16.238 49.158-27.368 74.909-20.662-29.673-15.344-61.385-3.326-87.908 15.662-29.667 21.238-58.743 47.272-71.591 82.154a148.04 148.04 0 0 0-5.69 19.63c3.67.468 8.3 1.19 13.625 2.341a146.89 146.89 0 0 1 5.065-16.97Z" opacity=".1"></path><path fill="#3c3b41" d="M575.546 1641.577a1805.01 1805.01 0 0 0-52.931-21.078 1783.84 1783.84 0 0 1 39.93 16.078c8.407 3.505 17.16 7.307 26.07 10.451-4.429-1.81-8.795-3.668-13.07-5.45Z"></path><path fill="url(#b)" d="M2640.546 2055.577c-15.37 55.56-31.59 80.86-55 97-18.75 12.93-49.85 25.32-62 14-9.45-8.8-4.99-29.66-3-39a65.485 65.485 0 0 1 2.85-9.87 62.03 62.03 0 0 1 3.1-6.77c2.69-5.15 5.78-9.9 9.05-18.36a111.455 111.455 0 0 0 4.27-14.94c.48-2.2.95-4.61 1.38-7.17a122.682 122.682 0 0 0 1.47-28.3c-.16-2.3-.4-4.64-.73-6.99-.35-2.52-.81-5.06-1.39-7.6-3.97-17.51-9.55-17.52-24-45-14.36-27.3-33.02-62.79-24-100 2.14-8.83 5.13-21.15 15-31 30.49-30.41 108.89-19.44 143 22 30.2 36.69 16.52 86.12-10 182Z"></path><path fill="url(#c)" d="M2650.546 1873.577c-22.488-27.319-64.22-41.39-98.788-39.098 30.971 1.948 64.476 15.637 83.788 39.098 30.196 36.686 16.522 86.12-10 182-15.37 55.563-31.594 80.858-55 97-11.186 7.715-26.762 15.233-40.09 17.644 14.595 3.82 39.247-6.718 55.09-17.644 23.406-16.142 39.63-41.437 55-97 26.522-95.88 40.196-145.314 10-182Z"></path><path fill="url(#o)" d="M2722.546 2049.577c-8.8 65.79-17.93 85.52-34 100-2.79 2.51-16.11 14.52-33.04 20.05-8.98 2.93-18.98 4.04-28.96.95a42.122 42.122 0 0 1-4.32-1.61 16.097 16.097 0 0 1-8.76-19.62 183.428 183.428 0 0 0 7.08-78.77c-1.94-14.74-4-33.26-11.93-50.84q-1.425-3.18-3.14-6.32a83.191 83.191 0 0 0-13.93-18.84c-4.86-4.92-8.9-7.79-22.53-18.86-22.04-17.92-21.83-17.68-25.47-21.14-3.73-3.54-34.88-33.11-28-48 5.07-10.97 24.86-1.16 46-14 22.63-13.75 35.2-46.69 30-73-5.05-25.53-27.49-34.48-23-45 2.77-6.5 14.34-10.12 61-7a759.653 759.653 0 0 1 64.74 7.14 37.332 37.332 0 0 1 31.5 33.04c3.72 36.23 5.19 67.06 5.76 90.82.31 12.83 1.48 72.7-9 151Z"></path><path fill="url(#p)" d="M2646.646 2171.797a43.818 43.818 0 0 1-20.1-1.22 42.122 42.122 0 0 1-4.32-1.61 16.097 16.097 0 0 1-8.76-19.62 185.831 185.831 0 0 0 8.6-55.18c0-2.53-.04-5.1-.16-7.72-.21-5.13-.65-10.43-1.36-15.87-.75-5.65-1.51-11.85-2.61-18.35q-.585-3.494-1.33-7.08c-3.55-17.07-10.1-35.4-25.06-50.57-4.86-4.92-8.9-7.79-22.53-18.86-22.04-17.92-21.83-17.68-25.47-21.14-3.73-3.54-34.88-33.11-28-48 5.07-10.97 24.86-1.16 46-14 22.63-13.75 35.2-46.69 30-73-5.05-25.53-27.49-34.48-23-45 2.3-5.4 10.7-8.81 40.25-8.02-17.59.62-23.4 3.67-25.25 8.02-4.49 10.52 17.95 19.47 23 45 5.2 26.31-7.37 59.25-30 73-21.14 12.84-40.93 3.03-46 14-6.88 14.89 24.27 44.46 28 48 3.64 3.46 3.43 3.22 25.47 21.14 13.63 11.07 17.67 13.94 22.53 18.86 11.85 12.02 18.42 26.02 22.41 39.81.81 2.78 1.51 5.56 2.11 8.3 2.24 9.94 3.38 19.53 4.48 27.89.08.62.16 1.23.23 1.84.43 3.54.74 7.02.95 10.43a184.567 184.567 0 0 1-8.26 66.5 16.097 16.097 0 0 0 8.76 19.62 42.122 42.122 0 0 0 4.32 1.61 41.01 41.01 0 0 0 5.1 1.22Z" opacity=".32"></path><path fill="url(#q)" d="M2573.546 1887.577c-22.59 17.12-47.2 18.92-58 19a2192.161 2192.161 0 0 1-252 12c-63.85-.64-123.91-4.04-179.69-9.2-28.97-2.68-50.34 13.59-76.63 22.89-74.17 26.25-162.2 28.32-240.21 34.41-58.69 4.59-117.6 6.93-176.47 5.9-35.98-.63-157.93-4.02-327.26-.79-15.56.3-28.35.59-36.74.79-11.43-24.02-8.54-55.67-16-94-12.28-63.03-21.61-116.54-15-151 6.16-9.69 25.08-38.11 56.7-62.55 21.76-16.83 49.54-31.78 83.3-37.45 71.23-11.98 142.54 21.73 179.54 52.63a124.433 124.433 0 0 1 17.46 17.37 103.398 103.398 0 0 0 23.98 23.02c.97.67 1.98 1.33 3.02 1.98 22.09 13.82 44.63 15.24 62 16 40.11 1.76 60.17 2.64 97 0 59.1-4.23 123.9 12.75 151 29a72.234 72.234 0 0 0 18 8c17.11 4.91 31.36 1.88 42 0 31.38-5.55 24.53.05 65-6 36.92-5.52 60.15-12.81 77-17 83.57-20.79 170.81-5.48 259 10 9.25 1.62 20.74 3.8 38 6 27.55 3.52 54.15 5.11 112 5 28.04-.05 63.59-.51 105-2 6.57 5.6 19.97 18.72 24 39 8.41 42.35-32.35 74.23-36 77Z"></path><path fill="#0a56a4" d="M1226.546 1972.577c8.388-.2 21.18-.493 36.74-.79 169.334-3.23 291.283.162 327.26.79 58.873 1.03 117.778-1.31 176.47-5.895 78.007-6.093 166.036-8.167 240.212-34.41 26.287-9.3 47.655-25.57 76.625-22.89a2188.927 2188.927 0 0 0 179.693 9.195 2192.161 2192.161 0 0 0 252-12c10.8-.08 35.41-1.88 58-19 3.65-2.77 44.41-34.65 36-77a60.462 60.462 0 0 0-.778-3.357c-7.199 28.514-32.389 48.207-35.222 50.357-22.59 17.12-47.2 18.92-58 19a2192.161 2192.161 0 0 1-252 12 2188.927 2188.927 0 0 1-179.693-9.195c-28.97-2.68-50.338 13.59-76.625 22.89-74.176 26.243-162.205 28.317-240.212 34.41-58.692 4.585-117.597 6.924-176.47 5.895-35.977-.628-157.926-4.02-327.26-.79-15.56.297-28.352.59-36.74.79Z"></path><g mask="url(#r)"><path fill="#0a56a4" d="M1226.546 1972.577c8.388-.2 21.18-.493 36.74-.79 169.334-3.23 291.283.162 327.26.79 58.873 1.03 117.778-1.31 176.47-5.895 78.007-6.093 166.036-8.167 240.212-34.41 26.287-9.3 47.655-25.57 76.625-22.89a2188.927 2188.927 0 0 0 179.693 9.195 2192.161 2192.161 0 0 0 252-12c10.8-.08 35.41-1.88 58-19 3.65-2.77 44.41-34.65 36-77a60.462 60.462 0 0 0-.778-3.357c-7.199 28.514-32.389 48.207-35.222 50.357-22.59 17.12-47.2 18.92-58 19a2192.161 2192.161 0 0 1-252 12 2188.927 2188.927 0 0 1-179.693-9.195c-28.97-2.68-50.338 13.59-76.625 22.89-74.176 26.243-162.205 28.317-240.212 34.41-58.692 4.585-117.597 6.924-176.47 5.895-35.977-.628-157.926-4.02-327.26-.79-15.56.297-28.352.59-36.74.79Z" opacity=".5" style="mix-blend-mode:screen"></path></g><path fill="url(#s)" d="M2722.546 2049.577c-8.8 65.79-17.93 85.52-34 100-2.79 2.51-16.11 14.52-33.04 20.05v-.05a16.526 16.526 0 0 1 2.545-8.942 314.897 314.897 0 0 0 28.495-58.058c9.845-26.737 20.45-66.933 17-175a1494.673 1494.673 0 0 0-12.88-153.41c.855.075 2.103.317 3.62.55a37.332 37.332 0 0 1 31.5 33.04c3.72 36.23 5.19 67.06 5.76 90.82.31 12.83 1.48 72.7-9 151Z"></path><path fill="url(#t)" d="M1263.286 1971.787q-17.835.33-36.74.79a393.85 393.85 0 0 1-31-94 397.93 397.93 0 0 1 0-151c6.16-9.69 25.08-38.11 56.7-62.55-6.42 41.39-19.44 96.43-15.7 168.55a514.034 514.034 0 0 0 26.74 138.21Z"></path><g opacity=".44"><path fill="url(#u)" d="m1254.064 1941.66-20.882.489-18.636.428a399.402 399.402 0 0 1-3.778-8.19 396.66 396.66 0 0 0 15.778 38.19q18.9-.465 36.74-.79a531.21 531.21 0 0 1-9.222-30.127Z"></path><g mask="url(#v)"><path fill="#87c61a" d="m1254.064 1941.66-20.882.489-18.636.428a399.402 399.402 0 0 1-3.778-8.19 396.66 396.66 0 0 0 15.778 38.19q18.9-.465 36.74-.79a531.21 531.21 0 0 1-9.222-30.127Z" opacity=".22" style="mix-blend-mode:multiply"></path></g></g><path fill="url(#w)" d="M2634.716 1992.057c-6.63 14.19-16.2 24.11-26.1 27.68q-1.425-3.18-3.14-6.32c8.31-2.61 16.93-11.56 22.9-24.32a3.498 3.498 0 1 1 6.34 2.96Z"></path><path fill="url(#x)" d="M2642.716 2025.057a67.185 67.185 0 0 1-11.65 17.63 39.133 39.133 0 0 1-13.13 9.54q-.585-3.494-1.33-7.08a37.637 37.637 0 0 0 12.35-10.76 64.722 64.722 0 0 0 7.42-12.29 3.498 3.498 0 1 1 6.34 2.96Z"></path><path fill="url(#y)" d="M2646.716 2067.057a69.28 69.28 0 0 1-9.99 15.79 40.973 40.973 0 0 1-14.66 11.32c0-2.53-.04-5.1-.16-7.72 4.9-2.81 9.72-7.66 13.87-14.03a69.094 69.094 0 0 0 4.6-8.32 3.498 3.498 0 1 1 6.34 2.96Z"></path><path fill="url(#z)" d="M2572.936 2030.857c-10.41 7.24-21.08 11.1-30.27 11.31-.16-2.3-.4-4.64-.73-6.99 7.87-.02 17.56-3.5 27-10.07a3.502 3.502 0 0 1 4 5.75Z"></path><path fill="url(#A)" d="M2560.936 2106.857c-12.5 8.7-27.22 12.4-37.54 10.85a62.03 62.03 0 0 1 3.1-6.77c8.37 1.2 19.58-2.26 30.44-9.83a3.502 3.502 0 0 1 4 5.75Z"></path><path fill="url(#B)" d="M2568.306 2066.417a67.373 67.373 0 0 1-18.92 9.4 44.555 44.555 0 0 1-9.57 1.82c.48-2.2.95-4.61 1.38-7.17a44.027 44.027 0 0 0 10.52-2.89 64.08 64.08 0 0 0 12.59-6.91 3.502 3.502 0 0 1 4 5.75Z"></path><ellipse cx="2631.546" cy="1992.577" fill="url(#C)" rx="8" ry="10"></ellipse><ellipse cx="2639.546" cy="2026.577" fill="url(#D)" rx="8" ry="10"></ellipse><ellipse cx="2644.546" cy="2065.577" fill="url(#E)" rx="8" ry="10"></ellipse><ellipse cx="2571.638" cy="2027.178" fill="url(#F)" rx="10" ry="8" transform="rotate(-74.342 2571.638 2027.178)"></ellipse><ellipse cx="2570.165" cy="2062.075" fill="url(#G)" rx="10" ry="8" transform="rotate(-74.342 2570.165 2062.075)"></ellipse><ellipse cx="2564.453" cy="2100.977" fill="url(#H)" rx="10" ry="8" transform="rotate(-74.342 2564.453 2100.977)"></ellipse><path fill="url(#d)" d="M1899.866 1777.917h.01a79.773 79.773 0 0 1 22.04 32.94 82.85 82.85 0 0 1 1.483 48.804 3.486 3.486 0 0 1-4.428 2.393 3.505 3.505 0 0 1-2.308-4.265 75.87 75.87 0 0 0-1.347-44.612c-6.96-19.84-20.78-31.99-31.78-38.88Z"></path><path fill="url(#I)" d="M2302.866 1758.577h.01a79.773 79.773 0 0 1 22.04 32.94 82.85 82.85 0 0 1 1.483 48.804 3.486 3.486 0 0 1-4.428 2.393 3.505 3.505 0 0 1-2.308-4.265 75.87 75.87 0 0 0-1.347-44.612c-6.96-19.84-20.78-31.99-31.78-38.88Z"></path><path fill="url(#J)" d="M1559.716 1749.727c-9.79-32.7-28.91-55.44-44.63-69.52a124.433 124.433 0 0 1 17.46 17.37 103.398 103.398 0 0 0 23.98 23.02 154.569 154.569 0 0 1 10.85 26.83 156.48 156.48 0 0 1 6.16 55.41 4.001 4.001 0 0 1-3.99 3.74 2.346 2.346 0 0 1-.26-.01"></path><path fill="url(#K)" fill-rule="evenodd" d="M2627.231 1933.962c11.872 10.105 26.202 19.887 37.569 19.887 6.599 0 15.85-5.531 15.85-19.027 0-7.31-2.963-14.582-5.208-20.25-3.843-9.574-49.763-115.33-49.763-115.33-.53-1.036-1.165-.842-.835.452.13.505 31.183 115.138 31.183 115.138a24.252 24.252 0 0 1 .97 6.67c0 9.905-4.755 16.581-15.138 16.581-4.05 0-8.902-1.268-14.634-4.121Z"></path><path fill="url(#L)" d="m972.863 1866.721-37.9 78.561a6.894 6.894 0 0 0-1.063 4.11c.492 5.721 9.769 10.805 23.136 12.506-12.673-2.803-33.056-7.021-58.536-10.943-17.09-2.631-20.279-2.297-36.146-4.843-63.95-10.26-96.69-15.8-134-36-2.94-1.6-7.14-3.9-12.25-6.98l30.07-218.96c7.989-13.988 17.01-20.854 25.495-24.118 47.782-18.375 130.856 57.378 212.225 183.793l-11.031 22.874Z"></path><path fill="url(#M)" d="M800.825 1692.637c11.203 33.242 5.236 68.573 8.156 102.81 4.76 55.832 24.977 108.351 28.087 164.181 3.49 62.639-1.939 125.984-7.868 188.292a29.98 29.98 0 0 1-29.373 27.128c-17.281.269-31.932.429-43.28.53-42.428.375-84.867-.38-127.276-1.696-41.366-1.283-105.537-2.718-204.725-3.305-31.169-.007-56.404.84-74.001 1.638-22.978 1.043-30.174 1.88-37-3.638-21.98-17.768-3.47-71.832-2-76a128.746 128.746 0 0 1 22-38c9.74-11.714 14.608-17.571 22-20 16.23-5.33 33.938 5.461 66 25a374.288 374.288 0 0 1 17 11 979.125 979.125 0 0 0 178 9 975.046 975.046 0 0 0 68.734-5.247 26.404 26.404 0 0 0 23.468-25.423c1.548-52.906-6.165-94.134-14.201-123.33-22.042-80.076-76.017-167.977-56.483-253.98 2.734-12.035 15.14-41.597 41.338-51.659 39.517-15.176 85.35 16.986 108.066 47.056a89.528 89.528 0 0 1 13.358 25.643Z"></path><path fill="#fbbf7d" d="M451.546 2074.577a374.248 374.248 0 0 1 17 11 979.125 979.125 0 0 0 178 9 975.046 975.046 0 0 0 68.733-5.247 26.404 26.404 0 0 0 23.468-25.423c1.548-52.906-6.165-94.134-14.201-123.33-22.042-80.076-76.017-167.976-56.483-253.98 2.734-12.035 15.14-41.597 41.337-51.658 13.5-5.185 29.233-4.395 44.996.75-24.497-16.637-52.774-24.285-74.996-15.75-26.198 10.061-38.603 39.623-41.337 51.659-19.534 86.002 34.441 173.903 56.483 253.98 8.036 29.195 15.75 70.423 14.201 123.329a26.404 26.404 0 0 1-23.468 25.423 975.044 975.044 0 0 1-68.733 5.247 978.485 978.485 0 0 1-169.698-7.86l4.698 2.86Z" opacity=".11"></path><path fill="none" stroke="#57565c" stroke-miterlimit="10" stroke-width="7" d="M0 2172.577h3000"></path></g></svg>