<svg width="40" height="40" viewBox="0 0 46 40" fill="none" xmlns="http://www.w3.org/2000/svg">
<path d="M39.9785 25.5946L38.487 11.5771C38.3963 10.7348 37.9383 9.95467 37.2069 9.39677C36.4756 8.83887 35.5264 8.54553 34.5541 8.57696C33.5818 8.60839 32.6603 8.9622 31.9786 9.56578C31.2969 10.1694 30.9068 10.9769 30.8883 11.8227L30.7704 13.767C28.1252 10.0193 22.7376 2.40786 22.6733 2.31692C22.4092 1.93703 22.0601 1.60712 21.6467 1.34677C21.2332 1.08642 20.7638 0.900938 20.2663 0.801321C19.7811 0.701812 19.2779 0.688016 18.7865 0.760751C18.295 0.833486 17.8254 0.991271 17.4054 1.22475C16.6717 1.63181 16.1193 2.24393 15.8391 2.96035L14.8849 1.60224C14.6209 1.22239 14.2718 0.892499 13.8584 0.632152C13.445 0.371804 12.9757 0.186301 12.4782 0.0866463C11.9929 -0.012993 11.4895 -0.0268557 10.9978 0.0458808C10.5062 0.118617 10.0364 0.276471 9.61627 0.510076C8.75912 0.995751 8.15364 1.75294 7.92853 2.62069C7.70342 3.48843 7.87644 4.3983 8.41081 5.15687L8.95459 5.93061C8.0895 5.83455 7.21308 6.00565 6.47826 6.41403C5.62111 6.89971 5.01563 7.6569 4.79052 8.52465C4.56541 9.39239 4.73843 10.3023 5.2728 11.0608L7.13274 13.7077C6.2676 13.6106 5.3908 13.7818 4.65641 14.1911C3.79914 14.6767 3.19351 15.4338 2.96827 16.3016C2.74302 17.1693 2.91593 18.0792 3.45023 18.8379L13.4648 33.0986C16.2366 37.0422 21.3949 40 26.8248 40C28.9619 39.9999 31.065 39.5344 32.942 38.646C32.9571 38.6388 32.9722 38.6313 32.9869 38.6232L34.15 37.98C37.0342 36.3848 38.7454 34.5801 39.6971 32.1295C40.394 30.3367 40.3009 28.7027 40.1334 27.0477C40.0543 26.2606 39.9785 25.5946 39.9785 25.5946ZM38.3353 31.7295C37.4953 33.891 35.9668 35.4932 33.3783 36.9251L32.2379 37.5557C25.6557 40.6216 18.1501 37.3688 14.6915 32.4464L4.67761 18.1863C4.33798 17.7077 4.22637 17.1328 4.36651 16.5838C4.50664 16.0347 4.88746 15.5548 5.42806 15.2461C5.96624 14.9625 6.61151 14.8752 7.22331 15.0034C7.8351 15.1316 8.36386 15.4648 8.69438 15.9304L15.0642 24.9959C15.1658 25.1352 15.3257 25.2348 15.5101 25.2735C15.6945 25.3122 15.8891 25.2871 16.0526 25.2034C16.1331 25.1606 16.2032 25.1044 16.2588 25.038C16.3143 24.9717 16.3543 24.8964 16.3765 24.8166C16.3986 24.7368 16.4024 24.654 16.3877 24.5729C16.373 24.4918 16.3401 24.4141 16.2909 24.344L6.49946 10.409C6.15971 9.9304 6.04799 9.3555 6.18806 8.80645C6.32813 8.2574 6.70894 7.77748 7.24955 7.4687C7.78816 7.18439 8.43433 7.09705 9.04679 7.22575C9.65926 7.35446 10.1882 7.68876 10.518 8.15557L20.3112 22.0928C20.4131 22.2318 20.573 22.3312 20.7573 22.3699C20.9415 22.4087 21.1359 22.3838 21.2996 22.3006C21.3802 22.2578 21.4502 22.2016 21.5058 22.1353C21.5614 22.0689 21.6014 21.9937 21.6235 21.9139C21.6456 21.8341 21.6494 21.7513 21.6348 21.6702C21.6201 21.5891 21.5872 21.5113 21.5379 21.4413L9.63783 4.50532C9.29796 4.02673 9.18618 3.45175 9.32626 2.90263C9.46633 2.3535 9.84721 1.87353 10.3879 1.56475C10.927 1.27994 11.574 1.1926 12.187 1.32189C12.8 1.45117 13.3291 1.78652 13.6582 2.25442L25.5579 19.1904C25.6596 19.3296 25.8195 19.429 26.0039 19.4678C26.1883 19.5065 26.3827 19.4814 26.5463 19.3979C26.7089 19.3114 26.8255 19.1723 26.8702 19.0111C26.915 18.85 26.8843 18.68 26.7849 18.5385L17.4262 5.21937C17.0863 4.74081 16.9746 4.16583 17.1147 3.61673C17.2549 3.06763 17.6359 2.58773 18.1767 2.27911C18.4358 2.13513 18.7255 2.03791 19.0287 1.99325C19.3318 1.94858 19.6422 1.95738 19.9414 2.01911C20.253 2.08179 20.547 2.19829 20.8058 2.3617C21.0646 2.52511 21.283 2.73209 21.448 2.97035C21.5264 3.08128 29.3256 14.1001 30.7532 16.1345C30.8332 16.2484 30.953 16.337 31.0951 16.3874C31.2372 16.4378 31.3941 16.4473 31.5429 16.4146C31.6917 16.3819 31.8245 16.3086 31.922 16.2055C32.0194 16.1024 32.0763 15.9749 32.0844 15.8417L32.3245 11.8755C32.3285 11.3457 32.567 10.8377 32.9903 10.4567C33.4137 10.0757 33.9895 9.85101 34.5983 9.8293C35.2071 9.80759 35.8022 9.9905 36.26 10.3401C36.7179 10.6896 37.0033 11.1791 37.0572 11.7068C37.0572 11.7068 38.6225 26.3752 38.7015 27.1568C38.8607 28.7321 38.9434 30.1639 38.3353 31.7295ZM5.9776 34.4145C4.3466 33.9398 2.97473 32.4292 2.23434 31.1733C1.3697 29.7125 1.20071 28.0147 1.76388 26.4465C1.82202 26.2886 1.80565 26.1171 1.71836 25.9697C1.63108 25.8223 1.48003 25.7111 1.29844 25.6606C1.11685 25.61 0.919604 25.6242 0.750087 25.7001C0.580569 25.776 0.45267 25.9074 0.394523 26.0652C-0.283405 27.9487 -0.0820115 29.9885 0.955203 31.7439C1.37679 32.4595 2.95352 34.8529 5.52151 35.6001C5.61104 35.6261 5.7056 35.6366 5.79978 35.6308C5.89396 35.6251 5.98592 35.6033 6.07041 35.5667C6.15489 35.53 6.23026 35.4793 6.29219 35.4173C6.35412 35.3554 6.40141 35.2834 6.43135 35.2056C6.4613 35.1277 6.47332 35.0455 6.46673 34.9636C6.46013 34.8817 6.43505 34.8018 6.39291 34.7283C6.35078 34.6548 6.29241 34.5893 6.22115 34.5355C6.14989 34.4816 6.06713 34.4405 5.9776 34.4145ZM7.77465 31.2889C6.93004 31.0433 6.20762 30.2396 5.81227 29.5686C5.35521 28.7971 5.26549 27.9003 5.56248 27.0718C5.592 26.9935 5.60342 26.9109 5.59607 26.8287C5.58872 26.7465 5.56275 26.6664 5.51966 26.593C5.47657 26.5196 5.4172 26.4543 5.34498 26.401C5.27276 26.3476 5.1891 26.3071 5.09884 26.282C5.00857 26.2568 4.91347 26.2474 4.81902 26.2544C4.72456 26.2613 4.63261 26.2844 4.54847 26.3223C4.46432 26.3603 4.38964 26.4123 4.32871 26.4755C4.26779 26.5386 4.22184 26.6116 4.19349 26.6902C3.78124 27.8339 3.90311 29.0727 4.53277 30.1389C4.78723 30.5708 5.74039 32.0155 7.31856 32.4745C7.49948 32.5251 7.696 32.5122 7.86607 32.4384C8.03614 32.3646 8.16626 32.2359 8.22858 32.0798C8.28893 31.9226 8.27502 31.751 8.1899 31.6027C8.10478 31.4544 7.95542 31.3415 7.77465 31.2889ZM44.525 6.45435C44.0147 5.79311 42.1468 3.60033 39.5429 3.13972C39.3561 3.10669 39.1618 3.13955 39.0028 3.23106C38.8439 3.32257 38.7332 3.46523 38.6952 3.62768C38.6573 3.79012 38.695 3.95903 38.8003 4.09725C38.9055 4.23546 39.0696 4.33167 39.2565 4.3647C40.899 4.65532 42.4383 5.99467 43.3314 7.15121C44.377 8.50551 44.7787 10.1593 44.4521 11.7655C44.435 11.8462 44.4364 11.9291 44.4561 12.0094C44.4759 12.0897 44.5137 12.1658 44.5673 12.2334C44.6209 12.301 44.6893 12.3587 44.7685 12.4033C44.8478 12.4479 44.9364 12.4785 45.0293 12.4933C45.0723 12.5003 45.116 12.5037 45.1598 12.5036C45.3278 12.5035 45.4904 12.4521 45.6194 12.3586C45.7484 12.265 45.8357 12.1351 45.866 11.9914C46.2594 10.0644 45.7788 8.0798 44.525 6.45435ZM38.239 6.41622C38.0521 6.38324 37.8578 6.41615 37.6988 6.50772C37.5399 6.59929 37.4292 6.74201 37.3913 6.90449C37.3534 7.06698 37.3912 7.23591 37.4965 7.37413C37.6018 7.51235 37.766 7.60853 37.9529 7.64151C38.8 7.79151 39.6108 8.504 40.0871 9.12055C40.6399 9.83622 40.8524 10.7103 40.6801 11.5593C40.663 11.64 40.6644 11.7228 40.6841 11.8031C40.7038 11.8834 40.7416 11.9594 40.7951 12.027C40.8487 12.0946 40.9171 12.1524 40.9963 12.197C41.0755 12.2416 41.1641 12.2722 41.2569 12.2871C41.3498 12.3019 41.4451 12.3007 41.5374 12.2836C41.6297 12.2664 41.7172 12.2336 41.7949 12.187C41.8727 12.1404 41.9391 12.081 41.9904 12.0121C42.0417 11.9432 42.0769 11.8662 42.094 11.7855C42.3332 10.6156 42.0416 9.41055 41.2803 8.42369C40.9723 8.02463 39.8419 6.69965 38.239 6.41622Z" fill="#2E4242"/>
</svg>
