<svg width="40" height="30" viewBox="0 0 40 30" fill="none" xmlns="http://www.w3.org/2000/svg">
<path d="M28.6582 0.000697249C27.01 -0.00729694 25.3801 0.313158 23.8838 0.939359C22.3876 1.56556 21.0617 2.48218 20 3.62428C18.9453 2.47479 17.6208 1.553 16.1229 0.926121C14.6251 0.299246 12.9916 -0.0169125 11.3418 0.000697249C8.33375 0.000697249 5.44892 1.08318 3.32193 3.01002C1.19493 4.93685 0 7.55021 0 10.2752C0 19.9992 18.7342 29.4939 19.4937 29.8609C19.6435 29.9516 19.8197 30 20 30C20.1803 30 20.3565 29.9516 20.5063 29.8609C21.2658 29.4939 40 20.1368 40 10.2752C40 7.55021 38.8051 4.93685 36.6781 3.01002C34.5511 1.08318 31.6663 0.000697249 28.6582 0.000697249ZM20 28.0261C17.0633 26.4666 2.02532 18.1645 2.02532 10.2752C2.02532 8.03681 3.00687 5.89012 4.75404 4.30737C6.50122 2.72461 8.87089 1.83542 11.3418 1.83542C12.8916 1.817 14.421 2.15693 15.7854 2.82309C17.1498 3.48925 18.3041 4.45963 19.1392 5.64248C19.2378 5.76565 19.3673 5.8659 19.5169 5.93504C19.6665 6.00417 19.832 6.04021 20 6.04021C20.168 6.04021 20.3335 6.00417 20.4831 5.93504C20.6327 5.8659 20.7622 5.76565 20.8608 5.64248C21.9596 4.12006 23.5721 2.96 25.4578 2.33514C27.3436 1.71027 29.4017 1.65405 31.3256 2.17484C33.2495 2.69563 34.9362 3.76556 36.1343 5.22523C37.3325 6.6849 37.978 8.45618 37.9747 10.2752C37.9747 18.2562 22.9367 26.5125 20 28.0261Z" fill="#EAF4F4"/>
</svg>
