<svg width="149" height="25" viewBox="0 0 149 25" fill="none" xmlns="http://www.w3.org/2000/svg">
<path d="M3.224 24.2951C2.60533 24.2951 2.02933 24.1671 1.496 23.9111C0.984 23.6551 0.728 23.2711 0.728 22.7591V2.4071C0.728 1.87377 0.984 1.48977 1.496 1.2551C2.02933 1.02044 2.60533 0.903105 3.224 0.903105C3.84267 0.903105 4.408 1.02044 4.92 1.2551C5.45333 1.48977 5.72 1.87377 5.72 2.4071V22.7591C5.72 23.2711 5.45333 23.6551 4.92 23.9111C4.408 24.1671 3.84267 24.2951 3.224 24.2951ZM11.3415 24.2951C10.6162 24.2951 10.0188 24.1351 9.5495 23.8151C9.1015 23.4951 8.8775 23.1431 8.8775 22.7591V10.5671C8.8775 10.1191 9.1015 9.75644 9.5495 9.4791C10.0188 9.20177 10.6162 9.0631 11.3415 9.0631C11.9388 9.0631 12.4508 9.20177 12.8775 9.4791C13.3042 9.75644 13.5175 10.1191 13.5175 10.5671V11.3031C13.8162 10.6844 14.3388 10.1298 15.0855 9.6391C15.8322 9.1271 16.7388 8.8711 17.8055 8.8711C18.7868 8.8711 19.6828 9.18044 20.4935 9.7991C21.3255 10.3964 21.9868 11.2071 22.4775 12.2311C22.9895 13.2338 23.2455 14.3538 23.2455 15.5911V22.7591C23.2455 23.2711 22.9788 23.6551 22.4455 23.9111C21.9335 24.1671 21.3682 24.2951 20.7495 24.2951C20.1735 24.2951 19.6188 24.1671 19.0855 23.9111C18.5522 23.6551 18.2855 23.2711 18.2855 22.7591V15.5911C18.2855 15.1858 18.1788 14.8018 17.9655 14.4391C17.7735 14.0764 17.4962 13.7778 17.1335 13.5431C16.7922 13.3084 16.4082 13.1911 15.9815 13.1911C15.6402 13.1911 15.2988 13.2871 14.9575 13.4791C14.6375 13.6711 14.3708 13.9484 14.1575 14.3111C13.9442 14.6524 13.8375 15.0791 13.8375 15.5911V22.7591C13.8375 23.1431 13.5922 23.4951 13.1015 23.8151C12.6108 24.1351 12.0242 24.2951 11.3415 24.2951ZM28.4353 24.2951C27.7099 24.2951 27.1126 24.1351 26.6432 23.8151C26.1953 23.4951 25.9713 23.1431 25.9713 22.7591V10.5671C25.9713 10.1191 26.1953 9.75644 26.6432 9.4791C27.1126 9.20177 27.7099 9.0631 28.4353 9.0631C29.0326 9.0631 29.5446 9.20177 29.9713 9.4791C30.3979 9.75644 30.6113 10.1191 30.6113 10.5671V11.3031C30.9099 10.6844 31.4326 10.1298 32.1793 9.6391C32.9259 9.1271 33.8326 8.8711 34.8993 8.8711C35.8806 8.8711 36.7766 9.18044 37.5873 9.7991C38.4193 10.3964 39.0806 11.2071 39.5713 12.2311C40.0833 13.2338 40.3393 14.3538 40.3393 15.5911V22.7591C40.3393 23.2711 40.0726 23.6551 39.5393 23.9111C39.0273 24.1671 38.4619 24.2951 37.8433 24.2951C37.2673 24.2951 36.7126 24.1671 36.1793 23.9111C35.6459 23.6551 35.3793 23.2711 35.3793 22.7591V15.5911C35.3793 15.1858 35.2726 14.8018 35.0593 14.4391C34.8673 14.0764 34.5899 13.7778 34.2273 13.5431C33.8859 13.3084 33.5019 13.1911 33.0753 13.1911C32.7339 13.1911 32.3926 13.2871 32.0513 13.4791C31.7313 13.6711 31.4646 13.9484 31.2513 14.3111C31.0379 14.6524 30.9313 15.0791 30.9313 15.5911V22.7591C30.9313 23.1431 30.6859 23.4951 30.1953 23.8151C29.7046 24.1351 29.1179 24.2951 28.4353 24.2951ZM50.585 24.6151C49.0063 24.6151 47.609 24.3378 46.393 23.7831C45.177 23.2071 44.217 22.4071 43.513 21.3831C42.8303 20.3591 42.489 19.1751 42.489 17.8311V15.4951C42.489 14.3004 42.8197 13.2018 43.481 12.1991C44.1423 11.1964 45.0277 10.3964 46.137 9.7991C47.2463 9.18044 48.4837 8.8711 49.849 8.8711C51.0863 8.8711 52.217 9.1271 53.241 9.6391C54.2863 10.1511 55.129 10.8658 55.769 11.7831C56.409 12.6791 56.729 13.7351 56.729 14.9511C56.729 15.9111 56.569 16.6044 56.249 17.0311C55.9503 17.4364 55.5557 17.6924 55.065 17.7991C54.5957 17.8844 54.1157 17.9271 53.625 17.9271H47.449V18.1191C47.449 18.9084 47.7477 19.5484 48.345 20.0391C48.9423 20.5084 49.7317 20.7431 50.713 20.7431C51.3743 20.7431 51.9397 20.6471 52.409 20.4551C52.8783 20.2418 53.2943 20.0391 53.657 19.8471C54.0197 19.6551 54.3717 19.5591 54.713 19.5591C55.097 19.5591 55.4277 19.6871 55.705 19.9431C55.9823 20.1991 56.185 20.4978 56.313 20.8391C56.4623 21.1804 56.537 21.4791 56.537 21.7351C56.537 22.1404 56.2917 22.5671 55.801 23.0151C55.3103 23.4631 54.617 23.8471 53.721 24.1671C52.8463 24.4658 51.801 24.6151 50.585 24.6151ZM47.449 15.1431H51.417C51.6517 15.1431 51.8223 15.0898 51.929 14.9831C52.0357 14.8764 52.089 14.6738 52.089 14.3751C52.089 13.9484 51.9717 13.5964 51.737 13.3191C51.5237 13.0204 51.2357 12.8071 50.873 12.6791C50.5317 12.5298 50.1583 12.4551 49.753 12.4551C49.369 12.4551 48.9957 12.5298 48.633 12.6791C48.2917 12.8071 48.0037 13.0204 47.769 13.3191C47.5557 13.5964 47.449 13.9484 47.449 14.3751V15.1431ZM61.372 24.2951C60.668 24.2951 60.0813 24.1351 59.612 23.8151C59.164 23.4951 58.94 23.1431 58.94 22.7591V10.5671C58.94 10.1191 59.164 9.75644 59.612 9.4791C60.0813 9.20177 60.668 9.0631 61.372 9.0631C61.9907 9.0631 62.5133 9.20177 62.94 9.4791C63.3667 9.75644 63.58 10.1191 63.58 10.5671V11.7511C63.7933 11.2818 64.092 10.8338 64.476 10.4071C64.8813 9.9591 65.3293 9.59644 65.82 9.3191C66.332 9.02044 66.8547 8.8711 67.388 8.8711H68.316C68.7853 8.8711 69.1907 9.08444 69.532 9.5111C69.8947 9.93777 70.076 10.4391 70.076 11.0151C70.076 11.6124 69.8947 12.1244 69.532 12.5511C69.1907 12.9778 68.7853 13.1911 68.316 13.1911H67.388C66.812 13.1911 66.2573 13.3938 65.724 13.7991C65.1907 14.1831 64.7533 14.7271 64.412 15.4311C64.0707 16.1351 63.9 16.9778 63.9 17.9591V22.7591C63.9 23.1431 63.6547 23.4951 63.164 23.8151C62.6733 24.1351 62.076 24.2951 61.372 24.2951ZM74.3177 24.2951C73.6991 24.2951 73.1231 24.1671 72.5898 23.9111C72.0778 23.6551 71.8218 23.2711 71.8218 22.7591V2.4071C71.8218 2.00177 71.9924 1.64977 72.3338 1.3511C72.6751 1.05244 73.1231 0.903105 73.6778 0.903105H80.3018C81.7098 0.903105 82.9791 1.14844 84.1098 1.6391C85.2618 2.10844 86.1684 2.8871 86.8298 3.9751C87.5124 5.04177 87.8538 6.4711 87.8538 8.2631V8.4231C87.8538 10.2151 87.5018 11.6551 86.7978 12.7431C86.1151 13.8311 85.1764 14.6204 83.9818 15.1111C82.7871 15.6018 81.4538 15.8471 79.9818 15.8471H76.8138V22.7591C76.8138 23.2711 76.5471 23.6551 76.0138 23.9111C75.5018 24.1671 74.9364 24.2951 74.3177 24.2951ZM76.8138 12.0071H79.9818C80.8778 12.0071 81.5818 11.7511 82.0938 11.2391C82.6058 10.7058 82.8618 9.8951 82.8618 8.8071V8.4551C82.8618 7.3671 82.6058 6.5671 82.0938 6.0551C81.5818 5.52177 80.8778 5.2551 79.9818 5.2551H76.8138V12.0071ZM96.5538 24.6151C94.9751 24.6151 93.5778 24.3378 92.3618 23.7831C91.1458 23.2071 90.1858 22.4071 89.4818 21.3831C88.7991 20.3591 88.4578 19.1751 88.4578 17.8311V15.4951C88.4578 14.3004 88.7884 13.2018 89.4498 12.1991C90.1111 11.1964 90.9964 10.3964 92.1058 9.7991C93.2151 9.18044 94.4524 8.8711 95.8177 8.8711C97.0551 8.8711 98.1858 9.1271 99.2098 9.6391C100.255 10.1511 101.098 10.8658 101.738 11.7831C102.378 12.6791 102.698 13.7351 102.698 14.9511C102.698 15.9111 102.538 16.6044 102.218 17.0311C101.919 17.4364 101.524 17.6924 101.034 17.7991C100.564 17.8844 100.084 17.9271 99.5938 17.9271H93.4178V18.1191C93.4178 18.9084 93.7164 19.5484 94.3138 20.0391C94.9111 20.5084 95.7004 20.7431 96.6818 20.7431C97.3431 20.7431 97.9084 20.6471 98.3778 20.4551C98.8471 20.2418 99.2631 20.0391 99.6258 19.8471C99.9884 19.6551 100.34 19.5591 100.682 19.5591C101.066 19.5591 101.396 19.6871 101.674 19.9431C101.951 20.1991 102.154 20.4978 102.282 20.8391C102.431 21.1804 102.506 21.4791 102.506 21.7351C102.506 22.1404 102.26 22.5671 101.77 23.0151C101.279 23.4631 100.586 23.8471 99.6898 24.1671C98.8151 24.4658 97.7698 24.6151 96.5538 24.6151ZM93.4178 15.1431H97.3858C97.6204 15.1431 97.7911 15.0898 97.8978 14.9831C98.0044 14.8764 98.0578 14.6738 98.0578 14.3751C98.0578 13.9484 97.9404 13.5964 97.7058 13.3191C97.4924 13.0204 97.2044 12.8071 96.8418 12.6791C96.5004 12.5298 96.1271 12.4551 95.7218 12.4551C95.3378 12.4551 94.9644 12.5298 94.6018 12.6791C94.2604 12.8071 93.9724 13.0204 93.7378 13.3191C93.5244 13.5964 93.4178 13.9484 93.4178 14.3751V15.1431ZM108.141 24.6151C107.031 24.6151 106.071 24.2738 105.261 23.5911C104.45 22.8871 104.045 21.8098 104.045 20.3591C104.045 19.1004 104.365 18.1191 105.005 17.4151C105.645 16.7111 106.519 16.2204 107.629 15.9431C108.759 15.6658 110.061 15.5271 111.533 15.5271H112.685V15.2071C112.685 14.8444 112.61 14.4818 112.461 14.1191C112.311 13.7564 112.066 13.4578 111.725 13.2231C111.383 12.9671 110.903 12.8391 110.285 12.8391C109.41 12.8391 108.759 12.9244 108.333 13.0951C107.906 13.2658 107.575 13.4471 107.341 13.6391C107.106 13.8098 106.839 13.8951 106.541 13.8951C106.007 13.8951 105.591 13.6284 105.293 13.0951C105.015 12.5618 104.877 12.0071 104.877 11.4311C104.877 10.9191 105.165 10.4711 105.741 10.0871C106.338 9.7031 107.053 9.40444 107.885 9.1911C108.738 8.97777 109.559 8.8711 110.349 8.8711C112.098 8.8711 113.506 9.16977 114.573 9.7671C115.639 10.3644 116.418 11.1431 116.909 12.1031C117.399 13.0418 117.645 14.0551 117.645 15.1431V22.7591C117.645 23.1858 117.41 23.5484 116.941 23.8471C116.493 24.1458 115.917 24.2951 115.213 24.2951C114.594 24.2951 114.071 24.1458 113.645 23.8471C113.218 23.5484 113.005 23.1858 113.005 22.7591V22.0551C112.429 22.7164 111.757 23.3138 110.989 23.8471C110.221 24.3591 109.271 24.6151 108.141 24.6151ZM110.285 20.9991C110.626 20.9991 110.978 20.8711 111.341 20.6151C111.703 20.3378 112.013 19.9751 112.269 19.5271C112.546 19.0791 112.685 18.5884 112.685 18.0551V17.9271H112.557C111.959 17.9271 111.383 17.9698 110.829 18.0551C110.295 18.1191 109.858 18.2791 109.517 18.5351C109.197 18.7698 109.037 19.1431 109.037 19.6551C109.037 20.1244 109.154 20.4658 109.389 20.6791C109.623 20.8924 109.922 20.9991 110.285 20.9991ZM127.129 24.6151C125.443 24.6151 124.057 24.3164 122.969 23.7191C121.902 23.1218 121.113 22.3111 120.601 21.2871C120.11 20.2631 119.865 19.1111 119.865 17.8311V15.6551C119.865 14.3751 120.11 13.2231 120.601 12.1991C121.113 11.1751 121.902 10.3644 122.969 9.7671C124.035 9.16977 125.401 8.8711 127.065 8.8711C128.11 8.8711 129.038 8.9991 129.849 9.2551C130.659 9.48977 131.299 9.80977 131.769 10.2151C132.238 10.6204 132.473 11.0578 132.473 11.5271C132.473 11.8258 132.387 12.1671 132.217 12.5511C132.067 12.9351 131.843 13.2658 131.545 13.5431C131.267 13.8204 130.937 13.9591 130.553 13.9591C130.297 13.9591 130.041 13.8951 129.785 13.7671C129.55 13.6391 129.251 13.5111 128.889 13.3831C128.526 13.2551 128.057 13.1911 127.481 13.1911C126.521 13.1911 125.838 13.4044 125.433 13.8311C125.027 14.2578 124.825 14.8658 124.825 15.6551V17.8311C124.825 18.6204 125.027 19.2284 125.433 19.6551C125.838 20.0818 126.531 20.2951 127.513 20.2951C128.089 20.2951 128.547 20.2204 128.889 20.0711C129.23 19.9218 129.518 19.7831 129.753 19.6551C130.009 19.5058 130.275 19.4311 130.553 19.4311C131.001 19.4311 131.385 19.5591 131.705 19.8151C132.025 20.0711 132.259 20.3911 132.409 20.7751C132.579 21.1378 132.665 21.4791 132.665 21.7991C132.665 22.2684 132.419 22.7271 131.929 23.1751C131.438 23.6018 130.777 23.9538 129.945 24.2311C129.113 24.4871 128.174 24.6151 127.129 24.6151ZM141.96 24.6151C140.381 24.6151 138.984 24.3378 137.768 23.7831C136.552 23.2071 135.592 22.4071 134.888 21.3831C134.205 20.3591 133.864 19.1751 133.864 17.8311V15.4951C133.864 14.3004 134.195 13.2018 134.856 12.1991C135.517 11.1964 136.403 10.3964 137.512 9.7991C138.621 9.18044 139.859 8.8711 141.224 8.8711C142.461 8.8711 143.592 9.1271 144.616 9.6391C145.661 10.1511 146.504 10.8658 147.144 11.7831C147.784 12.6791 148.104 13.7351 148.104 14.9511C148.104 15.9111 147.944 16.6044 147.624 17.0311C147.325 17.4364 146.931 17.6924 146.44 17.7991C145.971 17.8844 145.491 17.9271 145 17.9271H138.824V18.1191C138.824 18.9084 139.123 19.5484 139.72 20.0391C140.317 20.5084 141.107 20.7431 142.088 20.7431C142.749 20.7431 143.315 20.6471 143.784 20.4551C144.253 20.2418 144.669 20.0391 145.032 19.8471C145.395 19.6551 145.747 19.5591 146.088 19.5591C146.472 19.5591 146.803 19.6871 147.08 19.9431C147.357 20.1991 147.56 20.4978 147.688 20.8391C147.837 21.1804 147.912 21.4791 147.912 21.7351C147.912 22.1404 147.667 22.5671 147.176 23.0151C146.685 23.4631 145.992 23.8471 145.096 24.1671C144.221 24.4658 143.176 24.6151 141.96 24.6151ZM138.824 15.1431H142.792C143.027 15.1431 143.197 15.0898 143.304 14.9831C143.411 14.8764 143.464 14.6738 143.464 14.3751C143.464 13.9484 143.347 13.5964 143.112 13.3191C142.899 13.0204 142.611 12.8071 142.248 12.6791C141.907 12.5298 141.533 12.4551 141.128 12.4551C140.744 12.4551 140.371 12.5298 140.008 12.6791C139.667 12.8071 139.379 13.0204 139.144 13.3191C138.931 13.5964 138.824 13.9484 138.824 14.3751V15.1431Z" fill="#F6FFF8"/>
</svg>
