<?xml version="1.0" encoding="iso-8859-1"?>
<!-- Uploaded to: SVG Repo, www.svgrepo.com, Generator: SVG Repo Mixer Tools -->
<!DOCTYPE svg PUBLIC "-//W3C//DTD SVG 1.1//EN" "http://www.w3.org/Graphics/SVG/1.1/DTD/svg11.dtd">
<svg fill="#2E4242" version="1.1" id="Capa_1" xmlns="http://www.w3.org/2000/svg" xmlns:xlink="http://www.w3.org/1999/xlink" 
	 width="500px" height="500px" viewBox="0 0 502.905 502.905"
	 xml:space="preserve">
<g>
	<g>
		<path d="M0,209.901v-35.457c3.836,0.066,7.691,0.093,11.516,0.39c6.143,0.478,12.325,1.015,18.377,2.213
			c6.086,1.205,12.145,2.543,18.043,4.488c3.053,1.006,6.07,2.054,9.057,3.244c2.995,1.193,5.926,2.478,8.842,3.851
			c11.408,5.369,22.136,12.427,31.978,20.288c4.956,3.959,9.827,8.013,14.692,12.084c4.563,3.82,9.146,7.634,13.998,11.087
			c4.688,3.337,9.658,6.279,15.039,8.356c2.873,1.109,5.857,2.001,8.881,2.596c2.382,0.468,4.798,0.979,7.226,1.15
			c1.218,0.087,2.433,0.296,3.651,0.329c2.299,0.06,4.598,0.121,6.896,0.183c-0.439-0.006,1.262,0.019-0.938-0.011
			c1.464-0.051,2.928-0.099,4.393-0.123c1.603-0.028,3.194-0.224,4.792-0.342c5.273-0.392,10.581-1.584,15.539-3.414
			c10.513-3.881,19.339-10.93,27.868-18.008c9.076-7.53,18.019-15.213,27.738-21.92c5.24-3.616,10.708-6.87,16.322-9.869
			c3.182-1.699,6.458-3.319,9.798-4.693c5.101-2.1,10.248-4.105,15.556-5.63c6.182-1.775,12.465-3.277,18.829-4.221
			c4.078-0.604,8.136-1.105,12.242-1.418c1.81-0.138,3.616-0.271,5.426-0.392c1.696-0.114,3.412-0.091,5.111-0.137
			c3.916-0.104,7.818,0.014,11.734,0.125c3.503,0.099,7.004,0.453,10.494,0.77c5.245,0.476,10.465,1.436,15.62,2.496
			c12.156,2.5,23.957,6.722,35.015,12.353c10.344,5.268,19.938,11.839,29.047,19.01c4.609,3.64,9.104,7.417,13.604,11.192
			c4.375,3.672,8.746,7.409,13.402,10.723c2.244,1.596,4.502,3.155,6.86,4.577c1.124,0.678,2.264,1.327,3.421,1.947
			c1.291,0.691,2.656,1.404,4.022,1.931c1.445,0.556,2.863,1.145,4.336,1.625c1.162,0.38,2.298,0.725,3.479,1.041
			c2.942,0.787,5.909,1.278,8.921,1.716c3.986,0.609,8.051,0.569,12.076,0.677l-0.958,35.444c-2.02-0.054-4.036-0.106-6.054-0.16
			c-2.391-0.063-4.771-0.315-7.152-0.513l-1.264,12.81c2.485,0.205,4.981,0.487,7.478,0.554c2.214,0.059,4.429,0.117,6.645,0.176
			l-0.96,35.443c-4.144-0.107-8.272-0.222-12.407-0.539c-6.108-0.468-12.177-1.232-18.189-2.416c-6.1-1.199-12.104-2.742-18-4.714
			c-3.072-1.026-6.074-2.177-9.083-3.376c-2.968-1.212-5.872-2.559-8.759-3.951c-5.678-2.738-11.131-6-16.396-9.457
			c-5.285-3.469-10.375-7.233-15.312-11.18c-4.94-3.945-9.765-8.027-14.618-12.077c-4.553-3.797-9.146-7.562-14.036-10.922
			c-4.751-3.264-9.814-6.056-15.269-7.965c-1.424-0.499-2.863-0.897-4.318-1.295c-1.518-0.414-3.047-0.706-4.584-1.035
			c-2.031-0.438-4.149-0.706-6.227-0.858c-1.123-0.084-2.244-0.183-3.365-0.285c-1.835-0.168-3.717-0.096-5.56-0.162
			c2.199-0.028,0.498-0.004,0.939-0.01c-1.428,0.037-2.854,0.075-4.281,0.113c-0.936,0.023-1.871,0.051-2.805,0.074
			c-0.668,0.018-1.334,0.14-1.998,0.205c-2.208,0.216-4.396,0.436-6.586,0.82c-2.846,0.502-5.66,1.197-8.402,2.115
			c-10.604,3.549-19.522,10.383-28.057,17.408c-9.07,7.469-17.928,15.188-27.543,21.966c-5.484,3.866-11.201,7.396-17.121,10.556
			c-1.904,1.018-3.821,1.982-5.774,2.904c-1.39,0.655-2.778,1.375-4.201,1.961c-1.763,0.727-3.53,1.438-5.301,2.146
			c-2.967,1.188-5.999,2.168-9.032,3.171c-3.05,1.009-6.189,1.756-9.295,2.569c-1.555,0.408-3.156,0.688-4.732,1.008
			c-1.574,0.318-3.148,0.67-4.735,0.92c-4.309,0.679-8.618,1.264-12.966,1.618c-1.831,0.149-3.665,0.339-5.5,0.438
			c-1.896,0.104-3.8,0.113-5.697,0.166c-3.002,0.084-5.978,0.064-8.981-0.016c-3.761-0.101-7.479-0.353-11.232-0.642
			c-3.467-0.285-6.896-0.765-10.339-1.27c-6.396-0.938-12.764-2.414-18.962-4.248c-5.884-1.74-11.646-3.889-17.247-6.391
			c-10.854-4.846-20.988-11.104-30.505-18.207c-9.179-6.85-17.708-14.492-26.648-21.641c-4.344-3.473-8.829-6.777-13.651-9.563
			c-4.854-2.808-10.123-4.97-15.593-6.233c-3.574-0.826-7.203-1.326-10.856-1.619c-2.471-0.197-4.938-0.217-7.412-0.322V222.77
			c1.98,0.053,3.96,0.105,5.94,0.158c2.358,0.063,4.714,0.315,7.064,0.508l1.317-12.803c-2.581-0.214-5.164-0.492-7.754-0.561
			C4.38,210.017,2.189,209.959,0,209.901z M383.873,234.458c10.537,5.654,19.811,13.288,28.943,20.934
			c5.712,4.78,11.44,9.515,17.365,14.033l7.674-10.334c-8.943-6.822-17.371-14.261-26.16-21.273
			c-6.828-5.448-13.99-10.531-21.691-14.676L383.873,234.458z M277.758,238.859c9.844-6.535,21.016-11.318,32.601-13.671
			c6.525-1.324,13.112-2.12,19.771-2.298l-0.348-12.866c-2.264,0.061-4.506,0.194-6.764,0.38c-1.533,0.125-3.082,0.203-4.606,0.417
			c-1.541,0.215-3.081,0.436-4.622,0.65c-6.293,0.875-12.479,2.529-18.495,4.533c-8.635,2.875-16.962,7.027-24.544,12.059
			L277.758,238.859z M172.027,292.895c11.362-0.309,22.729-2.072,33.524-5.67c8.979-2.992,17.569-7.148,25.471-12.367l-7.007-10.797
			c-9.844,6.535-21.016,11.319-32.6,13.672c-6.535,1.326-13.138,2.127-19.807,2.299L172.027,292.895z M63.918,243.832
			c8.943,6.822,17.371,14.261,26.159,21.272c6.829,5.449,13.991,10.533,21.692,14.677l6.131-11.316
			c-10.537-5.655-19.81-13.288-28.943-20.934c-5.713-4.781-11.441-9.518-17.367-14.033L63.918,243.832z"/>
	</g>
</g>
</svg>