<svg width="41" height="38" viewBox="0 0 41 38" fill="none" xmlns="http://www.w3.org/2000/svg">
<path d="M0.400879 33.6664C0.400879 35.9217 2.25802 37.6463 4.68659 37.6463H36.1152C38.5437 37.6463 40.4009 35.9217 40.4009 33.6664V13.7665H0.400879V33.6664ZM36.1152 3.15331H34.6866V1.82665C34.6866 1.03066 34.1152 0.5 33.258 0.5C32.4009 0.5 31.8295 1.03066 31.8295 1.82665V3.15331H26.1152V1.82665C26.1152 1.03066 25.5437 0.5 24.6866 0.5C23.8295 0.5 23.258 1.03066 23.258 1.82665V3.15331H17.5437V1.82665C17.5437 1.03066 16.9723 0.5 16.1152 0.5C15.258 0.5 14.6866 1.03066 14.6866 1.82665V3.15331H8.97231V1.82665C8.97231 1.03066 8.40088 0.5 7.54374 0.5C6.68659 0.5 6.11516 1.03066 6.11516 1.82665V3.15331H4.68659C2.25802 3.15331 0.400879 4.87796 0.400879 7.13327V11.1132H40.4009V7.13327C40.4009 4.87796 38.5437 3.15331 36.1152 3.15331ZM28.9723 8.45993H11.8295C10.9723 8.45993 10.4009 7.92927 10.4009 7.13327C10.4009 6.33728 10.9723 5.80662 11.8295 5.80662H28.9723C29.8295 5.80662 30.4009 6.33728 30.4009 7.13327C30.4009 7.92927 29.8295 8.45993 28.9723 8.45993Z" fill="#2E4242"/>
</svg>
