<svg width="41" height="38" viewBox="0 0 41 38" fill="none" xmlns="http://www.w3.org/2000/svg">
<path d="M21.0742 19.1893C21.8178 20.0376 22.1822 21.1187 22.0921 22.2094C22.0019 23.3 21.4641 24.3169 20.5898 25.0499C19.7155 25.7829 18.5714 26.176 17.3939 26.1481C16.2163 26.1201 15.0953 25.6733 14.2624 24.8998C13.4295 24.1263 12.9484 23.0853 12.9183 21.9918C12.8882 20.8983 13.3115 19.8358 14.1008 19.0239C14.8901 18.2119 15.9851 17.7125 17.1595 17.6288C18.334 17.5451 19.4982 17.8834 20.4117 18.574L23.6367 15.5791C21.8618 14.0913 19.5314 13.3063 17.1422 13.3914C14.7529 13.4765 12.4941 14.425 10.8472 16.0347C9.20025 17.6443 8.29563 19.7878 8.32619 22.008C8.35674 24.2282 9.32006 26.3495 11.0107 27.9195C12.7014 29.4896 14.9856 30.3842 17.3764 30.4126C19.7672 30.4409 22.0753 29.6008 23.8086 28.0714C25.5419 26.542 26.5633 24.4443 26.655 22.2255C26.7466 20.0068 25.9013 17.8426 24.2992 16.1943L21.0742 19.1893Z" fill="#2E4242"/>
<path d="M19.7429 19.195C19.1075 18.7345 18.324 18.4852 17.5179 18.4869C16.796 18.4869 16.0903 18.6857 15.4901 19.0582C14.8899 19.4307 14.422 19.96 14.1458 20.5794C13.8695 21.1988 13.7972 21.8803 13.9381 22.5378C14.0789 23.1953 14.4265 23.7993 14.937 24.2734C15.4474 24.7474 16.0978 25.0702 16.8058 25.201C17.5139 25.3318 18.2478 25.2647 18.9147 25.0081C19.5817 24.7516 20.1517 24.3171 20.5528 23.7597C20.9539 23.2023 21.1679 22.547 21.1679 21.8766C21.1698 21.128 20.9014 20.4004 20.4054 19.8103L17.8492 22.1842C17.8059 22.2248 17.7542 22.257 17.6974 22.279C17.6405 22.3009 17.5795 22.3121 17.5179 22.3119C17.4563 22.3126 17.3951 22.3017 17.3381 22.2797C17.2812 22.2578 17.2296 22.2253 17.1867 22.1842C17.1422 22.1443 17.1069 22.0965 17.0827 22.0436C17.0586 21.9908 17.0461 21.934 17.0461 21.8766C17.0461 21.8191 17.0586 21.7623 17.0827 21.7095C17.1069 21.6566 17.1422 21.6088 17.1867 21.5689L19.7429 19.195Z" fill="#2E4242"/>
<path d="M24.9679 15.5733C26.7426 17.382 27.6848 19.7638 27.593 22.2093C27.5012 24.6548 26.3828 26.9699 24.4768 28.6595C22.5708 30.3491 20.0286 31.2792 17.3939 31.2508C14.7591 31.2224 12.2408 30.2377 10.3776 28.5075C8.51443 26.7772 7.45417 24.4386 7.42357 21.9918C7.39297 19.545 8.39446 17.1841 10.2139 15.4141C12.0333 13.6441 14.5262 12.6055 17.1596 12.5202C19.793 12.435 22.3577 13.31 24.3054 14.958L28.1867 11.3537C25.2035 8.74492 21.2351 7.33065 17.1385 7.41634C13.0419 7.50203 9.14601 9.08081 6.29237 11.8117C3.43873 14.5425 1.8564 18.2062 1.88716 22.0114C1.91792 25.8166 3.55931 29.4578 6.45677 32.1486C9.35423 34.8393 13.2752 36.3636 17.3727 36.3922C21.4702 36.4208 25.4154 34.9513 28.356 32.3013C31.2967 29.6512 32.9967 26.0333 33.089 22.2289C33.1813 18.4246 31.6584 14.7392 28.8492 11.9689L24.9679 15.5733Z" fill="#2E4242"/>
<path d="M36.7615 4.62089C36.8443 4.53837 36.8894 4.42923 36.8873 4.31645C36.8851 4.20368 36.8359 4.09608 36.75 4.01632C36.6642 3.93657 36.5483 3.89088 36.4268 3.88889C36.3054 3.8869 36.1879 3.92876 36.099 4.00566L28.1865 11.3537C28.4178 11.551 28.6365 11.76 28.849 11.9689L36.7615 4.62089ZM38.8709 7.26235L36.4528 6.13925L31.4934 10.7442L34.9978 11.3955C35.0731 11.4097 35.1511 11.4066 35.2249 11.3864C35.2987 11.3661 35.366 11.3294 35.4209 11.2794L38.9928 7.96232C39.045 7.91334 39.084 7.85354 39.1065 7.78783C39.129 7.72212 39.1344 7.65239 39.1222 7.58438C39.11 7.51636 39.0805 7.45202 39.0363 7.39664C38.9921 7.34125 38.9343 7.29642 38.8678 7.26583L38.8709 7.26235ZM34.4646 4.29238L33.2553 2.04677C33.2219 1.98529 33.1734 1.93201 33.1136 1.89131C33.0538 1.85061 32.9845 1.82363 32.9113 1.81259C32.8382 1.80155 32.7632 1.80676 32.6927 1.82779C32.6221 1.84882 32.5579 1.88508 32.5053 1.93359L28.9328 5.25006C28.8781 5.30078 28.8378 5.36322 28.8154 5.43185C28.7929 5.50049 28.789 5.57321 28.804 5.64358L29.5053 8.89795L34.4646 4.29238Z" fill="#2E4242"/>
</svg>
